<svg width="1144" height="820" viewBox="0 0 1144 820" fill="none" xmlns="http://www.w3.org/2000/svg">
<rect x="302" y="113" width="111" height="113" fill="#C4C4C4"/>
<rect x="485" y="135" width="111" height="204" fill="#C4C4C4"/>
<rect x="668" y="157" width="111" height="452" fill="#C4C4C4"/>
<rect x="485" y="458" width="111" height="204" fill="#C4C4C4"/>
<rect x="302" y="283" width="111" height="113" fill="#C4C4C4"/>
<rect x="304" y="433" width="111" height="113" fill="#C4C4C4"/>
<rect x="302" y="583" width="111" height="113" fill="#C4C4C4"/>
<rect x="302" y="707" width="111" height="113" fill="#C4C4C4"/>
<rect x="485" y="702" width="111" height="118" fill="#C4C4C4"/>
<rect x="668" y="702" width="111" height="118" fill="#C4C4C4"/>
<rect x="873" y="96" width="205" height="724" fill="#C4C4C4"/>
<path d="M917.545 175H911.636L928.727 128.455H934.545L951.636 175H945.727L931.818 135.818H931.455L917.545 175ZM919.727 156.818H943.545V161.818H919.727V156.818ZM957.341 175V170.909L982.432 133.455H957.068V128.455H989.159V132.545L964.068 170H989.432V175H957.341ZM1001.61 128.455L1013.61 147.818H1013.98L1025.98 128.455H1032.61L1017.98 151.727L1032.61 175H1025.98L1013.98 156H1013.61L1001.61 175H994.977L1009.98 151.727L994.977 128.455H1001.61ZM915.636 252V205.455H931.909C935.152 205.455 937.826 206.015 939.932 207.136C942.038 208.242 943.606 209.735 944.636 211.614C945.667 213.477 946.182 215.545 946.182 217.818C946.182 219.818 945.826 221.47 945.114 222.773C944.417 224.076 943.492 225.106 942.341 225.864C941.205 226.621 939.97 227.182 938.636 227.545V228C940.061 228.091 941.492 228.591 942.932 229.5C944.371 230.409 945.576 231.712 946.545 233.409C947.515 235.106 948 237.182 948 239.636C948 241.97 947.47 244.068 946.409 245.932C945.348 247.795 943.674 249.273 941.386 250.364C939.098 251.455 936.121 252 932.455 252H915.636ZM921.273 247H932.455C936.136 247 938.75 246.288 940.295 244.864C941.856 243.424 942.636 241.682 942.636 239.636C942.636 238.061 942.235 236.606 941.432 235.273C940.629 233.924 939.485 232.848 938 232.045C936.515 231.227 934.758 230.818 932.727 230.818H921.273V247ZM921.273 225.909H931.727C933.424 225.909 934.955 225.576 936.318 224.909C937.697 224.242 938.788 223.303 939.591 222.091C940.409 220.879 940.818 219.455 940.818 217.818C940.818 215.773 940.106 214.038 938.682 212.614C937.258 211.174 935 210.455 931.909 210.455H921.273V225.909ZM996.534 228.727C996.534 233.636 995.648 237.879 993.875 241.455C992.102 245.03 989.67 247.788 986.58 249.727C983.489 251.667 979.958 252.636 975.989 252.636C972.019 252.636 968.489 251.667 965.398 249.727C962.307 247.788 959.875 245.03 958.102 241.455C956.33 237.879 955.443 233.636 955.443 228.727C955.443 223.818 956.33 219.576 958.102 216C959.875 212.424 962.307 209.667 965.398 207.727C968.489 205.788 972.019 204.818 975.989 204.818C979.958 204.818 983.489 205.788 986.58 207.727C989.67 209.667 992.102 212.424 993.875 216C995.648 219.576 996.534 223.818 996.534 228.727ZM991.08 228.727C991.08 224.697 990.405 221.295 989.057 218.523C987.723 215.75 985.913 213.652 983.625 212.227C981.352 210.803 978.807 210.091 975.989 210.091C973.17 210.091 970.617 210.803 968.33 212.227C966.057 213.652 964.246 215.75 962.898 218.523C961.564 221.295 960.898 224.697 960.898 228.727C960.898 232.758 961.564 236.159 962.898 238.932C964.246 241.705 966.057 243.803 968.33 245.227C970.617 246.652 973.17 247.364 975.989 247.364C978.807 247.364 981.352 246.652 983.625 245.227C985.913 243.803 987.723 241.705 989.057 238.932C990.405 236.159 991.08 232.758 991.08 228.727ZM1006.01 252V205.455H1034.1V210.455H1011.65V226.182H1032.65V231.182H1011.65V247H1034.47V252H1006.01ZM930 329H915.636V282.455H930.636C935.152 282.455 939.015 283.386 942.227 285.25C945.439 287.098 947.902 289.758 949.614 293.227C951.326 296.682 952.182 300.818 952.182 305.636C952.182 310.485 951.318 314.659 949.591 318.159C947.864 321.644 945.348 324.326 942.045 326.205C938.742 328.068 934.727 329 930 329ZM921.273 324H929.636C933.485 324 936.674 323.258 939.205 321.773C941.735 320.288 943.621 318.174 944.864 315.432C946.106 312.689 946.727 309.424 946.727 305.636C946.727 301.879 946.114 298.644 944.886 295.932C943.659 293.205 941.826 291.114 939.386 289.659C936.947 288.189 933.909 287.455 930.273 287.455H921.273V324ZM961.636 329V282.455H977.364C981.015 282.455 984 283.114 986.318 284.432C988.652 285.735 990.379 287.5 991.5 289.727C992.621 291.955 993.182 294.439 993.182 297.182C993.182 299.924 992.621 302.417 991.5 304.659C990.394 306.902 988.682 308.689 986.364 310.023C984.045 311.341 981.076 312 977.455 312H966.182V307H977.273C979.773 307 981.78 306.568 983.295 305.705C984.811 304.841 985.909 303.674 986.591 302.205C987.288 300.72 987.636 299.045 987.636 297.182C987.636 295.318 987.288 293.652 986.591 292.182C985.909 290.712 984.803 289.561 983.273 288.727C981.742 287.879 979.712 287.455 977.182 287.455H967.273V329H961.636ZM1041.53 305.727C1041.53 310.636 1040.65 314.879 1038.88 318.455C1037.1 322.03 1034.67 324.788 1031.58 326.727C1028.49 328.667 1024.96 329.636 1020.99 329.636C1017.02 329.636 1013.49 328.667 1010.4 326.727C1007.31 324.788 1004.88 322.03 1003.1 318.455C1001.33 314.879 1000.44 310.636 1000.44 305.727C1000.44 300.818 1001.33 296.576 1003.1 293C1004.88 289.424 1007.31 286.667 1010.4 284.727C1013.49 282.788 1017.02 281.818 1020.99 281.818C1024.96 281.818 1028.49 282.788 1031.58 284.727C1034.67 286.667 1037.1 289.424 1038.88 293C1040.65 296.576 1041.53 300.818 1041.53 305.727ZM1036.08 305.727C1036.08 301.697 1035.41 298.295 1034.06 295.523C1032.72 292.75 1030.91 290.652 1028.62 289.227C1026.35 287.803 1023.81 287.091 1020.99 287.091C1018.17 287.091 1015.62 287.803 1013.33 289.227C1011.06 290.652 1009.25 292.75 1007.9 295.523C1006.56 298.295 1005.9 301.697 1005.9 305.727C1005.9 309.758 1006.56 313.159 1007.9 315.932C1009.25 318.705 1011.06 320.803 1013.33 322.227C1015.62 323.652 1018.17 324.364 1020.99 324.364C1023.81 324.364 1026.35 323.652 1028.62 322.227C1030.91 320.803 1032.72 318.705 1034.06 315.932C1035.41 313.159 1036.08 309.758 1036.08 305.727ZM933.455 359.455H939.091V392.727C939.091 395.697 938.545 398.22 937.455 400.295C936.364 402.371 934.826 403.947 932.841 405.023C930.856 406.098 928.515 406.636 925.818 406.636C923.273 406.636 921.008 406.174 919.023 405.25C917.038 404.311 915.477 402.977 914.341 401.25C913.205 399.523 912.636 397.47 912.636 395.091H918.182C918.182 396.409 918.508 397.561 919.159 398.545C919.826 399.515 920.735 400.273 921.886 400.818C923.038 401.364 924.348 401.636 925.818 401.636C927.439 401.636 928.818 401.295 929.955 400.614C931.091 399.932 931.955 398.932 932.545 397.614C933.152 396.28 933.455 394.652 933.455 392.727V359.455ZM950.386 406V359.455H956.023V382.545H956.568L977.477 359.455H984.841L965.295 380.455L984.841 406H978.023L961.841 384.364L956.023 390.909V406H950.386ZM1006.86 391.455H1013.04L1018.22 398.273L1019.59 400.091L1027.31 410.364H1021.13L1016.04 403.545L1014.77 401.818L1006.86 391.455ZM1029.22 382.727C1029.22 387.636 1028.34 391.879 1026.56 395.455C1024.79 399.03 1022.36 401.788 1019.27 403.727C1016.18 405.667 1012.65 406.636 1008.68 406.636C1004.71 406.636 1001.18 405.667 998.085 403.727C994.994 401.788 992.563 399.03 990.79 395.455C989.017 391.879 988.131 387.636 988.131 382.727C988.131 377.818 989.017 373.576 990.79 370C992.563 366.424 994.994 363.667 998.085 361.727C1001.18 359.788 1004.71 358.818 1008.68 358.818C1012.65 358.818 1016.18 359.788 1019.27 361.727C1022.36 363.667 1024.79 366.424 1026.56 370C1028.34 373.576 1029.22 377.818 1029.22 382.727ZM1023.77 382.727C1023.77 378.697 1023.09 375.295 1021.74 372.523C1020.41 369.75 1018.6 367.652 1016.31 366.227C1014.04 364.803 1011.49 364.091 1008.68 364.091C1005.86 364.091 1003.3 364.803 1001.02 366.227C998.744 367.652 996.934 369.75 995.585 372.523C994.252 375.295 993.585 378.697 993.585 382.727C993.585 386.758 994.252 390.159 995.585 392.932C996.934 395.705 998.744 397.803 1001.02 399.227C1003.3 400.652 1005.86 401.364 1008.68 401.364C1011.49 401.364 1014.04 400.652 1016.31 399.227C1018.6 397.803 1020.41 395.705 1021.74 392.932C1023.09 390.159 1023.77 386.758 1023.77 382.727ZM915.636 483V436.455H921.273V459.545H921.818L942.727 436.455H950.091L930.545 457.455L950.091 483H943.273L927.091 461.364L921.273 467.909V483H915.636ZM957.386 483V436.455H963.023V457.182H987.841V436.455H993.477V483H987.841V462.182H963.023V483H957.386ZM1036.58 451C1036.08 449.47 1035.42 448.098 1034.6 446.886C1033.8 445.659 1032.84 444.614 1031.72 443.75C1030.61 442.886 1029.35 442.227 1027.94 441.773C1026.53 441.318 1024.99 441.091 1023.31 441.091C1020.55 441.091 1018.04 441.803 1015.78 443.227C1013.53 444.652 1011.73 446.75 1010.4 449.523C1009.06 452.295 1008.4 455.697 1008.4 459.727C1008.4 463.758 1009.07 467.159 1010.42 469.932C1011.77 472.705 1013.59 474.803 1015.9 476.227C1018.2 477.652 1020.79 478.364 1023.67 478.364C1026.34 478.364 1028.69 477.795 1030.72 476.659C1032.76 475.508 1034.35 473.886 1035.49 471.795C1036.64 469.689 1037.22 467.212 1037.22 464.364L1038.94 464.727H1024.94V459.727H1042.67V464.727C1042.67 468.561 1041.85 471.894 1040.22 474.727C1038.59 477.561 1036.35 479.758 1033.49 481.318C1030.64 482.864 1027.37 483.636 1023.67 483.636C1019.55 483.636 1015.93 482.667 1012.81 480.727C1009.7 478.788 1007.28 476.03 1005.53 472.455C1003.81 468.879 1002.94 464.636 1002.94 459.727C1002.94 456.045 1003.44 452.735 1004.42 449.795C1005.42 446.841 1006.83 444.326 1008.65 442.25C1010.47 440.174 1012.62 438.583 1015.1 437.477C1017.59 436.371 1020.32 435.818 1023.31 435.818C1025.76 435.818 1028.05 436.189 1030.17 436.932C1032.31 437.659 1034.21 438.697 1035.88 440.045C1037.56 441.379 1038.96 442.977 1040.08 444.841C1041.2 446.689 1041.97 448.742 1042.4 451H1036.58ZM915.636 560V513.455H921.273V555H942.909V560H915.636ZM981.642 528C981.142 526.47 980.483 525.098 979.665 523.886C978.862 522.659 977.9 521.614 976.778 520.75C975.672 519.886 974.415 519.227 973.006 518.773C971.597 518.318 970.051 518.091 968.369 518.091C965.612 518.091 963.104 518.803 960.847 520.227C958.589 521.652 956.794 523.75 955.46 526.523C954.127 529.295 953.46 532.697 953.46 536.727C953.46 540.758 954.134 544.159 955.483 546.932C956.831 549.705 958.657 551.803 960.96 553.227C963.263 554.652 965.854 555.364 968.733 555.364C971.4 555.364 973.748 554.795 975.778 553.659C977.824 552.508 979.415 550.886 980.551 548.795C981.703 546.689 982.278 544.212 982.278 541.364L984.006 541.727H970.006V536.727H987.733V541.727C987.733 545.561 986.915 548.894 985.278 551.727C983.657 554.561 981.415 556.758 978.551 558.318C975.703 559.864 972.43 560.636 968.733 560.636C964.612 560.636 960.991 559.667 957.869 557.727C954.763 555.788 952.339 553.03 950.597 549.455C948.869 545.879 948.006 541.636 948.006 536.727C948.006 533.045 948.498 529.735 949.483 526.795C950.483 523.841 951.892 521.326 953.71 519.25C955.528 517.174 957.68 515.583 960.165 514.477C962.65 513.371 965.384 512.818 968.369 512.818C970.824 512.818 973.112 513.189 975.233 513.932C977.369 514.659 979.271 515.697 980.938 517.045C982.619 518.379 984.021 519.977 985.142 521.841C986.263 523.689 987.036 525.742 987.46 528H981.642ZM997.386 560V513.455H1025.3V518.455H1003.02V534.182H1023.2V539.182H1003.02V560H997.386ZM915.636 637V590.455H931.364C935.015 590.455 938 591.114 940.318 592.432C942.652 593.735 944.379 595.5 945.5 597.727C946.621 599.955 947.182 602.439 947.182 605.182C947.182 607.924 946.621 610.417 945.5 612.659C944.394 614.902 942.682 616.689 940.364 618.023C938.045 619.341 935.076 620 931.455 620H920.182V615H931.273C933.773 615 935.78 614.568 937.295 613.705C938.811 612.841 939.909 611.674 940.591 610.205C941.288 608.72 941.636 607.045 941.636 605.182C941.636 603.318 941.288 601.652 940.591 600.182C939.909 598.712 938.803 597.561 937.273 596.727C935.742 595.879 933.712 595.455 931.182 595.455H921.273V637H915.636ZM956.261 637V590.455H961.898V632H983.534V637H956.261ZM1007.36 622.455H1013.54L1018.72 629.273L1020.09 631.091L1027.81 641.364H1021.63L1016.54 634.545L1015.27 632.818L1007.36 622.455ZM1029.72 613.727C1029.72 618.636 1028.84 622.879 1027.06 626.455C1025.29 630.03 1022.86 632.788 1019.77 634.727C1016.68 636.667 1013.15 637.636 1009.18 637.636C1005.21 637.636 1001.68 636.667 998.585 634.727C995.494 632.788 993.063 630.03 991.29 626.455C989.517 622.879 988.631 618.636 988.631 613.727C988.631 608.818 989.517 604.576 991.29 601C993.063 597.424 995.494 594.667 998.585 592.727C1001.68 590.788 1005.21 589.818 1009.18 589.818C1013.15 589.818 1016.68 590.788 1019.77 592.727C1022.86 594.667 1025.29 597.424 1027.06 601C1028.84 604.576 1029.72 608.818 1029.72 613.727ZM1024.27 613.727C1024.27 609.697 1023.59 606.295 1022.24 603.523C1020.91 600.75 1019.1 598.652 1016.81 597.227C1014.54 595.803 1011.99 595.091 1009.18 595.091C1006.36 595.091 1003.8 595.803 1001.52 597.227C999.244 598.652 997.434 600.75 996.085 603.523C994.752 606.295 994.085 609.697 994.085 613.727C994.085 617.758 994.752 621.159 996.085 623.932C997.434 626.705 999.244 628.803 1001.52 630.227C1003.8 631.652 1006.36 632.364 1009.18 632.364C1011.99 632.364 1014.54 631.652 1016.81 630.227C1019.1 628.803 1020.91 626.705 1022.24 623.932C1023.59 621.159 1024.27 617.758 1024.27 613.727ZM915.636 714V667.455H931.364C935 667.455 937.985 668.076 940.318 669.318C942.652 670.545 944.379 672.235 945.5 674.386C946.621 676.538 947.182 678.985 947.182 681.727C947.182 684.47 946.621 686.902 945.5 689.023C944.379 691.144 942.659 692.811 940.341 694.023C938.023 695.22 935.061 695.818 931.455 695.818H918.727V690.727H931.273C933.758 690.727 935.758 690.364 937.273 689.636C938.803 688.909 939.909 687.879 940.591 686.545C941.288 685.197 941.636 683.591 941.636 681.727C941.636 679.864 941.288 678.235 940.591 676.841C939.894 675.447 938.78 674.371 937.25 673.614C935.72 672.841 933.697 672.455 931.182 672.455H921.273V714H915.636ZM937.545 693.091L949 714H942.455L931.182 693.091H937.545ZM954.028 672.455V667.455H988.938V672.455H974.301V714H968.665V672.455H954.028ZM997.636 714V667.455H1025.55V672.455H1003.27V688.182H1023.45V693.182H1003.27V714H997.636ZM918.364 744.455L930.364 763.818H930.727L942.727 744.455H949.364L934.727 767.727L949.364 791H942.727L930.727 772H930.364L918.364 791H911.727L926.727 767.727L911.727 744.455H918.364ZM958.608 744.455L972.426 783.636H972.972L986.79 744.455H992.699L975.608 791H969.79L952.699 744.455H958.608ZM1036.86 744.455V791H1031.4L1006.04 754.455H1005.59V791H999.949V744.455H1005.4L1030.86 781.091H1031.31V744.455H1036.86Z" fill="black"/>
<path d="M332.193 130.818H335.364V149.534C335.364 151.205 335.057 152.624 334.443 153.791C333.83 154.959 332.964 155.845 331.848 156.45C330.732 157.055 329.415 157.358 327.898 157.358C326.466 157.358 325.192 157.098 324.075 156.578C322.959 156.05 322.081 155.3 321.442 154.328C320.803 153.357 320.483 152.202 320.483 150.864H323.602C323.602 151.605 323.786 152.253 324.152 152.807C324.527 153.352 325.038 153.778 325.686 154.085C326.334 154.392 327.071 154.545 327.898 154.545C328.81 154.545 329.585 154.354 330.224 153.97C330.864 153.587 331.349 153.024 331.682 152.283C332.023 151.533 332.193 150.616 332.193 149.534V130.818ZM341.717 157V130.818H344.888V143.807H345.195L356.956 130.818H361.098L350.104 142.631L361.098 157H357.263L348.161 144.83L344.888 148.511V157H341.717ZM373.483 148.818H376.96L379.875 152.653L380.642 153.676L384.988 159.455H381.511L378.647 155.619L377.931 154.648L373.483 148.818ZM386.062 143.909C386.062 146.67 385.564 149.057 384.566 151.068C383.569 153.08 382.201 154.631 380.463 155.722C378.724 156.812 376.738 157.358 374.505 157.358C372.272 157.358 370.287 156.812 368.548 155.722C366.809 154.631 365.441 153.08 364.444 151.068C363.447 149.057 362.949 146.67 362.949 143.909C362.949 141.148 363.447 138.761 364.444 136.75C365.441 134.739 366.809 133.188 368.548 132.097C370.287 131.006 372.272 130.46 374.505 130.46C376.738 130.46 378.724 131.006 380.463 132.097C382.201 133.188 383.569 134.739 384.566 136.75C385.564 138.761 386.062 141.148 386.062 143.909ZM382.994 143.909C382.994 141.642 382.615 139.729 381.856 138.169C381.106 136.609 380.088 135.429 378.801 134.628C377.522 133.827 376.091 133.426 374.505 133.426C372.92 133.426 371.484 133.827 370.197 134.628C368.919 135.429 367.9 136.609 367.142 138.169C366.392 139.729 366.017 141.642 366.017 143.909C366.017 146.176 366.392 148.089 367.142 149.649C367.9 151.209 368.919 152.389 370.197 153.19C371.484 153.991 372.92 154.392 374.505 154.392C376.091 154.392 377.522 153.991 378.801 153.19C380.088 152.389 381.106 151.209 381.856 149.649C382.615 148.089 382.994 146.176 382.994 143.909ZM322.17 201V174.818H325.341V187.807H325.648L337.409 174.818H341.551L330.557 186.631L341.551 201H337.716L328.614 188.83L325.341 192.511V201H322.17ZM345.655 201V174.818H348.825V186.477H362.786V174.818H365.956V201H362.786V189.29H348.825V201H345.655ZM390.201 183C389.92 182.139 389.549 181.368 389.089 180.686C388.637 179.996 388.096 179.408 387.465 178.922C386.843 178.436 386.136 178.065 385.343 177.81C384.55 177.554 383.681 177.426 382.735 177.426C381.184 177.426 379.773 177.827 378.504 178.628C377.234 179.429 376.224 180.609 375.474 182.169C374.724 183.729 374.349 185.642 374.349 187.909C374.349 190.176 374.728 192.089 375.487 193.649C376.245 195.209 377.272 196.389 378.567 197.19C379.863 197.991 381.32 198.392 382.94 198.392C384.44 198.392 385.761 198.072 386.903 197.433C388.053 196.786 388.948 195.874 389.587 194.697C390.235 193.513 390.559 192.119 390.559 190.517L391.531 190.722H383.656V187.909H393.627V190.722C393.627 192.878 393.167 194.753 392.246 196.347C391.335 197.94 390.073 199.176 388.462 200.054C386.86 200.923 385.019 201.358 382.94 201.358C380.621 201.358 378.585 200.812 376.829 199.722C375.082 198.631 373.718 197.08 372.738 195.068C371.766 193.057 371.281 190.67 371.281 187.909C371.281 185.838 371.558 183.976 372.112 182.322C372.674 180.661 373.467 179.246 374.489 178.078C375.512 176.911 376.722 176.016 378.12 175.393C379.518 174.771 381.056 174.46 382.735 174.46C384.116 174.46 385.403 174.669 386.596 175.087C387.798 175.496 388.867 176.08 389.805 176.838C390.751 177.588 391.539 178.487 392.17 179.536C392.8 180.575 393.235 181.73 393.474 183H390.201Z" fill="black"/>
<path d="M516.193 155.818H519.364V174.534C519.364 176.205 519.057 177.624 518.443 178.791C517.83 179.959 516.964 180.845 515.848 181.45C514.732 182.055 513.415 182.358 511.898 182.358C510.466 182.358 509.192 182.098 508.075 181.578C506.959 181.05 506.081 180.3 505.442 179.328C504.803 178.357 504.483 177.202 504.483 175.864H507.602C507.602 176.605 507.786 177.253 508.152 177.807C508.527 178.352 509.038 178.778 509.686 179.085C510.334 179.392 511.071 179.545 511.898 179.545C512.81 179.545 513.585 179.354 514.224 178.97C514.864 178.587 515.349 178.024 515.682 177.283C516.023 176.533 516.193 175.616 516.193 174.534V155.818ZM525.717 182V155.818H528.888V168.807H529.195L540.956 155.818H545.098L534.104 167.631L545.098 182H541.263L532.161 169.83L528.888 173.511V182H525.717ZM557.483 173.818H560.96L563.875 177.653L564.642 178.676L568.988 184.455H565.511L562.647 180.619L561.931 179.648L557.483 173.818ZM570.062 168.909C570.062 171.67 569.564 174.057 568.566 176.068C567.569 178.08 566.201 179.631 564.463 180.722C562.724 181.812 560.738 182.358 558.505 182.358C556.272 182.358 554.287 181.812 552.548 180.722C550.809 179.631 549.441 178.08 548.444 176.068C547.447 174.057 546.949 171.67 546.949 168.909C546.949 166.148 547.447 163.761 548.444 161.75C549.441 159.739 550.809 158.188 552.548 157.097C554.287 156.006 556.272 155.46 558.505 155.46C560.738 155.46 562.724 156.006 564.463 157.097C566.201 158.188 567.569 159.739 568.566 161.75C569.564 163.761 570.062 166.148 570.062 168.909ZM566.994 168.909C566.994 166.642 566.615 164.729 565.856 163.169C565.106 161.609 564.088 160.429 562.801 159.628C561.522 158.827 560.091 158.426 558.505 158.426C556.92 158.426 555.484 158.827 554.197 159.628C552.919 160.429 551.9 161.609 551.142 163.169C550.392 164.729 550.017 166.642 550.017 168.909C550.017 171.176 550.392 173.089 551.142 174.649C551.9 176.209 552.919 177.389 554.197 178.19C555.484 178.991 556.92 179.392 558.505 179.392C560.091 179.392 561.522 178.991 562.801 178.19C564.088 177.389 565.106 176.209 565.856 174.649C566.615 173.089 566.994 171.176 566.994 168.909ZM506.17 226V199.818H509.341V212.807H509.648L521.409 199.818H525.551L514.557 211.631L525.551 226H521.716L512.614 213.83L509.341 217.511V226H506.17ZM529.655 226V199.818H532.825V211.477H546.786V199.818H549.956V226H546.786V214.29H532.825V226H529.655ZM574.201 208C573.92 207.139 573.549 206.368 573.089 205.686C572.637 204.996 572.096 204.408 571.465 203.922C570.843 203.436 570.136 203.065 569.343 202.81C568.55 202.554 567.681 202.426 566.735 202.426C565.184 202.426 563.773 202.827 562.504 203.628C561.234 204.429 560.224 205.609 559.474 207.169C558.724 208.729 558.349 210.642 558.349 212.909C558.349 215.176 558.728 217.089 559.487 218.649C560.245 220.209 561.272 221.389 562.567 222.19C563.863 222.991 565.32 223.392 566.94 223.392C568.44 223.392 569.761 223.072 570.903 222.433C572.053 221.786 572.948 220.874 573.587 219.697C574.235 218.513 574.559 217.119 574.559 215.517L575.531 215.722H567.656V212.909H577.627V215.722C577.627 217.878 577.167 219.753 576.246 221.347C575.335 222.94 574.073 224.176 572.462 225.054C570.86 225.923 569.019 226.358 566.94 226.358C564.621 226.358 562.585 225.812 560.829 224.722C559.082 223.631 557.718 222.08 556.738 220.068C555.766 218.057 555.281 215.67 555.281 212.909C555.281 210.838 555.558 208.976 556.112 207.322C556.674 205.661 557.467 204.246 558.489 203.078C559.512 201.911 560.722 201.016 562.12 200.393C563.518 199.771 565.056 199.46 566.735 199.46C568.116 199.46 569.403 199.669 570.596 200.087C571.798 200.496 572.867 201.08 573.805 201.838C574.751 202.588 575.539 203.487 576.17 204.536C576.8 205.575 577.235 206.73 577.474 208H574.201ZM506.17 270V243.818H515.017C517.071 243.818 518.75 244.189 520.054 244.93C521.366 245.663 522.338 246.656 522.969 247.909C523.599 249.162 523.915 250.56 523.915 252.102C523.915 253.645 523.599 255.047 522.969 256.308C522.347 257.57 521.384 258.575 520.08 259.325C518.776 260.067 517.105 260.438 515.068 260.438H508.727V257.625H514.966C516.372 257.625 517.501 257.382 518.354 256.896C519.206 256.411 519.824 255.754 520.207 254.928C520.599 254.092 520.795 253.151 520.795 252.102C520.795 251.054 520.599 250.116 520.207 249.29C519.824 248.463 519.202 247.815 518.341 247.347C517.48 246.869 516.338 246.631 514.915 246.631H509.341V270H506.17ZM529.022 270V243.818H532.192V267.188H544.363V270H529.022ZM557.764 261.818H561.241L564.156 265.653L564.923 266.676L569.27 272.455H565.792L562.929 268.619L562.213 267.648L557.764 261.818ZM570.343 256.909C570.343 259.67 569.845 262.057 568.848 264.068C567.85 266.08 566.483 267.631 564.744 268.722C563.005 269.812 561.02 270.358 558.787 270.358C556.554 270.358 554.568 269.812 552.829 268.722C551.091 267.631 549.723 266.08 548.725 264.068C547.728 262.057 547.23 259.67 547.23 256.909C547.23 254.148 547.728 251.761 548.725 249.75C549.723 247.739 551.091 246.188 552.829 245.097C554.568 244.006 556.554 243.46 558.787 243.46C561.02 243.46 563.005 244.006 564.744 245.097C566.483 246.188 567.85 247.739 568.848 249.75C569.845 251.761 570.343 254.148 570.343 256.909ZM567.275 256.909C567.275 254.642 566.896 252.729 566.137 251.169C565.387 249.609 564.369 248.429 563.082 247.628C561.804 246.827 560.372 246.426 558.787 246.426C557.201 246.426 555.765 246.827 554.478 247.628C553.2 248.429 552.181 249.609 551.423 251.169C550.673 252.729 550.298 254.642 550.298 256.909C550.298 259.176 550.673 261.089 551.423 262.649C552.181 264.209 553.2 265.389 554.478 266.19C555.765 266.991 557.201 267.392 558.787 267.392C560.372 267.392 561.804 266.991 563.082 266.19C564.369 265.389 565.387 264.209 566.137 262.649C566.896 261.089 567.275 259.176 567.275 256.909ZM507.705 287.818L514.455 298.71H514.659L521.409 287.818H525.142L516.909 300.909L525.142 314H521.409L514.659 303.312H514.455L507.705 314H503.972L512.409 300.909L503.972 287.818H507.705ZM530.342 287.818L538.115 309.858H538.422L546.194 287.818H549.518L539.904 314H536.632L527.018 287.818H530.342ZM574.358 287.818V314H571.289L557.022 293.443H556.767V314H553.596V287.818H556.664L570.983 308.426H571.238V287.818H574.358Z" fill="black"/>
<path d="M689.244 216H685.92L695.534 189.818H698.807L708.42 216H705.097L697.273 193.96H697.068L689.244 216ZM690.472 205.773H703.869V208.585H690.472V205.773ZM711.629 216V213.699L725.743 192.631H711.476V189.818H729.527V192.119L715.413 213.188H729.68V216H711.629ZM736.533 189.818L743.283 200.71H743.487L750.237 189.818H753.97L745.737 202.909L753.97 216H750.237L743.487 205.312H743.283L736.533 216H732.8L741.237 202.909L732.8 189.818H736.533ZM688.17 260V233.818H697.324C699.148 233.818 700.652 234.134 701.837 234.764C703.021 235.386 703.903 236.226 704.483 237.283C705.063 238.331 705.352 239.494 705.352 240.773C705.352 241.898 705.152 242.827 704.751 243.56C704.359 244.293 703.839 244.872 703.192 245.298C702.553 245.724 701.858 246.04 701.108 246.244V246.5C701.909 246.551 702.714 246.832 703.524 247.344C704.334 247.855 705.011 248.588 705.557 249.543C706.102 250.497 706.375 251.665 706.375 253.045C706.375 254.358 706.077 255.538 705.48 256.587C704.884 257.635 703.942 258.466 702.655 259.08C701.368 259.693 699.693 260 697.631 260H688.17ZM691.341 257.188H697.631C699.702 257.188 701.172 256.787 702.041 255.986C702.919 255.176 703.358 254.196 703.358 253.045C703.358 252.159 703.132 251.341 702.68 250.591C702.229 249.832 701.585 249.227 700.75 248.776C699.915 248.315 698.926 248.085 697.784 248.085H691.341V257.188ZM691.341 245.324H697.222C698.176 245.324 699.037 245.136 699.804 244.761C700.58 244.386 701.193 243.858 701.645 243.176C702.105 242.494 702.335 241.693 702.335 240.773C702.335 239.622 701.935 238.646 701.134 237.845C700.332 237.036 699.063 236.631 697.324 236.631H691.341V245.324ZM733.675 246.909C733.675 249.67 733.177 252.057 732.18 254.068C731.183 256.08 729.815 257.631 728.076 258.722C726.337 259.812 724.352 260.358 722.119 260.358C719.886 260.358 717.9 259.812 716.161 258.722C714.423 257.631 713.055 256.08 712.058 254.068C711.06 252.057 710.562 249.67 710.562 246.909C710.562 244.148 711.06 241.761 712.058 239.75C713.055 237.739 714.423 236.188 716.161 235.097C717.9 234.006 719.886 233.46 722.119 233.46C724.352 233.46 726.337 234.006 728.076 235.097C729.815 236.188 731.183 237.739 732.18 239.75C733.177 241.761 733.675 244.148 733.675 246.909ZM730.607 246.909C730.607 244.642 730.228 242.729 729.469 241.169C728.719 239.609 727.701 238.429 726.414 237.628C725.136 236.827 723.704 236.426 722.119 236.426C720.533 236.426 719.097 236.827 717.81 237.628C716.532 238.429 715.513 239.609 714.755 241.169C714.005 242.729 713.63 244.642 713.63 246.909C713.63 249.176 714.005 251.089 714.755 252.649C715.513 254.209 716.532 255.389 717.81 256.19C719.097 256.991 720.533 257.392 722.119 257.392C723.704 257.392 725.136 256.991 726.414 256.19C727.701 255.389 728.719 254.209 729.469 252.649C730.228 251.089 730.607 249.176 730.607 246.909ZM739.006 260V233.818H754.808V236.631H742.177V245.477H753.989V248.29H742.177V257.188H755.012V260H739.006ZM698.193 277.818H701.364V296.534C701.364 298.205 701.057 299.624 700.443 300.791C699.83 301.959 698.964 302.845 697.848 303.45C696.732 304.055 695.415 304.358 693.898 304.358C692.466 304.358 691.192 304.098 690.075 303.578C688.959 303.05 688.081 302.3 687.442 301.328C686.803 300.357 686.483 299.202 686.483 297.864H689.602C689.602 298.605 689.786 299.253 690.152 299.807C690.527 300.352 691.038 300.778 691.686 301.085C692.334 301.392 693.071 301.545 693.898 301.545C694.81 301.545 695.585 301.354 696.224 300.97C696.864 300.587 697.349 300.024 697.682 299.283C698.023 298.533 698.193 297.616 698.193 296.534V277.818ZM707.717 304V277.818H710.888V290.807H711.195L722.956 277.818H727.098L716.104 289.631L727.098 304H723.263L714.161 291.83L710.888 295.511V304H707.717ZM739.483 295.818H742.96L745.875 299.653L746.642 300.676L750.988 306.455H747.511L744.647 302.619L743.931 301.648L739.483 295.818ZM752.062 290.909C752.062 293.67 751.564 296.057 750.566 298.068C749.569 300.08 748.201 301.631 746.463 302.722C744.724 303.812 742.738 304.358 740.505 304.358C738.272 304.358 736.287 303.812 734.548 302.722C732.809 301.631 731.441 300.08 730.444 298.068C729.447 296.057 728.949 293.67 728.949 290.909C728.949 288.148 729.447 285.761 730.444 283.75C731.441 281.739 732.809 280.188 734.548 279.097C736.287 278.006 738.272 277.46 740.505 277.46C742.738 277.46 744.724 278.006 746.463 279.097C748.201 280.188 749.569 281.739 750.566 283.75C751.564 285.761 752.062 288.148 752.062 290.909ZM748.994 290.909C748.994 288.642 748.615 286.729 747.856 285.169C747.106 283.609 746.088 282.429 744.801 281.628C743.522 280.827 742.091 280.426 740.505 280.426C738.92 280.426 737.484 280.827 736.197 281.628C734.919 282.429 733.9 283.609 733.142 285.169C732.392 286.729 732.017 288.642 732.017 290.909C732.017 293.176 732.392 295.089 733.142 296.649C733.9 298.209 734.919 299.389 736.197 300.19C737.484 300.991 738.92 301.392 740.505 301.392C742.091 301.392 743.522 300.991 744.801 300.19C746.088 299.389 747.106 298.209 747.856 296.649C748.615 295.089 748.994 293.176 748.994 290.909ZM688.17 348V321.818H691.341V334.807H691.648L703.409 321.818H707.551L696.557 333.631L707.551 348H703.716L694.614 335.83L691.341 339.511V348H688.17ZM711.655 348V321.818H714.825V333.477H728.786V321.818H731.956V348H728.786V336.29H714.825V348H711.655ZM756.201 330C755.92 329.139 755.549 328.368 755.089 327.686C754.637 326.996 754.096 326.408 753.465 325.922C752.843 325.436 752.136 325.065 751.343 324.81C750.55 324.554 749.681 324.426 748.735 324.426C747.184 324.426 745.773 324.827 744.504 325.628C743.234 326.429 742.224 327.609 741.474 329.169C740.724 330.729 740.349 332.642 740.349 334.909C740.349 337.176 740.728 339.089 741.487 340.649C742.245 342.209 743.272 343.389 744.567 344.19C745.863 344.991 747.32 345.392 748.94 345.392C750.44 345.392 751.761 345.072 752.903 344.433C754.053 343.786 754.948 342.874 755.587 341.697C756.235 340.513 756.559 339.119 756.559 337.517L757.531 337.722H749.656V334.909H759.627V337.722C759.627 339.878 759.167 341.753 758.246 343.347C757.335 344.94 756.073 346.176 754.462 347.054C752.86 347.923 751.019 348.358 748.94 348.358C746.621 348.358 744.585 347.812 742.829 346.722C741.082 345.631 739.718 344.08 738.738 342.068C737.766 340.057 737.281 337.67 737.281 334.909C737.281 332.838 737.558 330.976 738.112 329.322C738.674 327.661 739.467 326.246 740.489 325.078C741.512 323.911 742.722 323.016 744.12 322.393C745.518 321.771 747.056 321.46 748.735 321.46C750.116 321.46 751.403 321.669 752.596 322.087C753.798 322.496 754.867 323.08 755.805 323.838C756.751 324.588 757.539 325.487 758.17 326.536C758.8 327.575 759.235 328.73 759.474 330H756.201ZM688.17 392V365.818H691.341V389.188H703.511V392H688.17ZM725.299 374C725.017 373.139 724.647 372.368 724.186 371.686C723.735 370.996 723.194 370.408 722.563 369.922C721.941 369.436 721.233 369.065 720.441 368.81C719.648 368.554 718.779 368.426 717.833 368.426C716.282 368.426 714.871 368.827 713.601 369.628C712.331 370.429 711.321 371.609 710.571 373.169C709.821 374.729 709.446 376.642 709.446 378.909C709.446 381.176 709.826 383.089 710.584 384.649C711.343 386.209 712.37 387.389 713.665 388.19C714.961 388.991 716.418 389.392 718.037 389.392C719.537 389.392 720.858 389.072 722 388.433C723.151 387.786 724.046 386.874 724.685 385.697C725.333 384.513 725.657 383.119 725.657 381.517L726.628 381.722H718.753V378.909H728.725V381.722C728.725 383.878 728.265 385.753 727.344 387.347C726.432 388.94 725.171 390.176 723.56 391.054C721.958 391.923 720.117 392.358 718.037 392.358C715.719 392.358 713.682 391.812 711.926 390.722C710.179 389.631 708.816 388.08 707.836 386.068C706.864 384.057 706.378 381.67 706.378 378.909C706.378 376.838 706.655 374.976 707.209 373.322C707.772 371.661 708.564 370.246 709.587 369.078C710.61 367.911 711.82 367.016 713.218 366.393C714.615 365.771 716.154 365.46 717.833 365.46C719.213 365.46 720.5 365.669 721.694 366.087C722.895 366.496 723.965 367.08 724.902 367.838C725.848 368.588 726.637 369.487 727.267 370.536C727.898 371.575 728.333 372.73 728.571 374H725.299ZM734.155 392V365.818H749.854V368.631H737.325V377.477H748.678V380.29H737.325V392H734.155ZM688.17 436V409.818H697.017C699.071 409.818 700.75 410.189 702.054 410.93C703.366 411.663 704.338 412.656 704.969 413.909C705.599 415.162 705.915 416.56 705.915 418.102C705.915 419.645 705.599 421.047 704.969 422.308C704.347 423.57 703.384 424.575 702.08 425.325C700.776 426.067 699.105 426.438 697.068 426.438H690.727V423.625H696.966C698.372 423.625 699.501 423.382 700.354 422.896C701.206 422.411 701.824 421.754 702.207 420.928C702.599 420.092 702.795 419.151 702.795 418.102C702.795 417.054 702.599 416.116 702.207 415.29C701.824 414.463 701.202 413.815 700.341 413.347C699.48 412.869 698.338 412.631 696.915 412.631H691.341V436H688.17ZM711.022 436V409.818H714.192V433.188H726.363V436H711.022ZM739.764 427.818H743.241L746.156 431.653L746.923 432.676L751.27 438.455H747.792L744.929 434.619L744.213 433.648L739.764 427.818ZM752.343 422.909C752.343 425.67 751.845 428.057 750.848 430.068C749.85 432.08 748.483 433.631 746.744 434.722C745.005 435.812 743.02 436.358 740.787 436.358C738.554 436.358 736.568 435.812 734.829 434.722C733.091 433.631 731.723 432.08 730.725 430.068C729.728 428.057 729.23 425.67 729.23 422.909C729.23 420.148 729.728 417.761 730.725 415.75C731.723 413.739 733.091 412.188 734.829 411.097C736.568 410.006 738.554 409.46 740.787 409.46C743.02 409.46 745.005 410.006 746.744 411.097C748.483 412.188 749.85 413.739 750.848 415.75C751.845 417.761 752.343 420.148 752.343 422.909ZM749.275 422.909C749.275 420.642 748.896 418.729 748.137 417.169C747.387 415.609 746.369 414.429 745.082 413.628C743.804 412.827 742.372 412.426 740.787 412.426C739.201 412.426 737.765 412.827 736.478 413.628C735.2 414.429 734.181 415.609 733.423 417.169C732.673 418.729 732.298 420.642 732.298 422.909C732.298 425.176 732.673 427.089 733.423 428.649C734.181 430.209 735.2 431.389 736.478 432.19C737.765 432.991 739.201 433.392 740.787 433.392C742.372 433.392 743.804 432.991 745.082 432.19C746.369 431.389 747.387 430.209 748.137 428.649C748.896 427.089 749.275 425.176 749.275 422.909ZM688.17 480V453.818H697.017C699.063 453.818 700.741 454.168 702.054 454.866C703.366 455.557 704.338 456.507 704.969 457.717C705.599 458.928 705.915 460.304 705.915 461.847C705.915 463.389 705.599 464.757 704.969 465.95C704.338 467.143 703.371 468.081 702.067 468.763C700.763 469.436 699.097 469.773 697.068 469.773H689.909V466.909H696.966C698.364 466.909 699.489 466.705 700.341 466.295C701.202 465.886 701.824 465.307 702.207 464.557C702.599 463.798 702.795 462.895 702.795 461.847C702.795 460.798 702.599 459.882 702.207 459.098C701.815 458.314 701.189 457.709 700.328 457.283C699.467 456.848 698.33 456.631 696.915 456.631H691.341V480H688.17ZM700.494 468.239L706.938 480H703.256L696.915 468.239H700.494ZM709.766 456.631V453.818H729.402V456.631H721.169V480H717.999V456.631H709.766ZM734.295 480V453.818H749.994V456.631H737.466V465.477H748.818V468.29H737.466V480H734.295ZM689.705 497.818L696.455 508.71H696.659L703.409 497.818H707.142L698.909 510.909L707.142 524H703.409L696.659 513.312H696.455L689.705 524H685.972L694.409 510.909L685.972 497.818H689.705ZM712.342 497.818L720.115 519.858H720.422L728.194 497.818H731.518L721.904 524H718.632L709.018 497.818H712.342ZM756.358 497.818V524H753.289L739.022 503.443H738.767V524H735.596V497.818H738.664L752.983 518.426H753.238V497.818H756.358Z" fill="black"/>
<path d="M507.244 503H503.92L513.534 476.818H516.807L526.42 503H523.097L515.273 480.96H515.068L507.244 503ZM508.472 492.773H521.869V495.585H508.472V492.773ZM529.629 503V500.699L543.743 479.631H529.476V476.818H547.527V479.119L533.413 500.188H547.68V503H529.629ZM554.533 476.818L561.283 487.71H561.487L568.237 476.818H571.97L563.737 489.909L571.97 503H568.237L561.487 492.312H561.283L554.533 503H550.8L559.237 489.909L550.8 476.818H554.533ZM506.17 547V520.818H515.324C517.148 520.818 518.652 521.134 519.837 521.764C521.021 522.386 521.903 523.226 522.483 524.283C523.063 525.331 523.352 526.494 523.352 527.773C523.352 528.898 523.152 529.827 522.751 530.56C522.359 531.293 521.839 531.872 521.192 532.298C520.553 532.724 519.858 533.04 519.108 533.244V533.5C519.909 533.551 520.714 533.832 521.524 534.344C522.334 534.855 523.011 535.588 523.557 536.543C524.102 537.497 524.375 538.665 524.375 540.045C524.375 541.358 524.077 542.538 523.48 543.587C522.884 544.635 521.942 545.466 520.655 546.08C519.368 546.693 517.693 547 515.631 547H506.17ZM509.341 544.188H515.631C517.702 544.188 519.172 543.787 520.041 542.986C520.919 542.176 521.358 541.196 521.358 540.045C521.358 539.159 521.132 538.341 520.68 537.591C520.229 536.832 519.585 536.227 518.75 535.776C517.915 535.315 516.926 535.085 515.784 535.085H509.341V544.188ZM509.341 532.324H515.222C516.176 532.324 517.037 532.136 517.804 531.761C518.58 531.386 519.193 530.858 519.645 530.176C520.105 529.494 520.335 528.693 520.335 527.773C520.335 526.622 519.935 525.646 519.134 524.845C518.332 524.036 517.063 523.631 515.324 523.631H509.341V532.324ZM551.675 533.909C551.675 536.67 551.177 539.057 550.18 541.068C549.183 543.08 547.815 544.631 546.076 545.722C544.337 546.812 542.352 547.358 540.119 547.358C537.886 547.358 535.9 546.812 534.161 545.722C532.423 544.631 531.055 543.08 530.058 541.068C529.06 539.057 528.562 536.67 528.562 533.909C528.562 531.148 529.06 528.761 530.058 526.75C531.055 524.739 532.423 523.188 534.161 522.097C535.9 521.006 537.886 520.46 540.119 520.46C542.352 520.46 544.337 521.006 546.076 522.097C547.815 523.188 549.183 524.739 550.18 526.75C551.177 528.761 551.675 531.148 551.675 533.909ZM548.607 533.909C548.607 531.642 548.228 529.729 547.469 528.169C546.719 526.609 545.701 525.429 544.414 524.628C543.136 523.827 541.704 523.426 540.119 523.426C538.533 523.426 537.097 523.827 535.81 524.628C534.532 525.429 533.513 526.609 532.755 528.169C532.005 529.729 531.63 531.642 531.63 533.909C531.63 536.176 532.005 538.089 532.755 539.649C533.513 541.209 534.532 542.389 535.81 543.19C537.097 543.991 538.533 544.392 540.119 544.392C541.704 544.392 543.136 543.991 544.414 543.19C545.701 542.389 546.719 541.209 547.469 539.649C548.228 538.089 548.607 536.176 548.607 533.909ZM557.006 547V520.818H572.808V523.631H560.177V532.477H571.989V535.29H560.177V544.188H573.012V547H557.006ZM506.17 591V564.818H509.341V588.188H521.511V591H506.17ZM543.299 573C543.017 572.139 542.647 571.368 542.186 570.686C541.735 569.996 541.194 569.408 540.563 568.922C539.941 568.436 539.233 568.065 538.441 567.81C537.648 567.554 536.779 567.426 535.833 567.426C534.282 567.426 532.871 567.827 531.601 568.628C530.331 569.429 529.321 570.609 528.571 572.169C527.821 573.729 527.446 575.642 527.446 577.909C527.446 580.176 527.826 582.089 528.584 583.649C529.343 585.209 530.37 586.389 531.665 587.19C532.961 587.991 534.418 588.392 536.037 588.392C537.537 588.392 538.858 588.072 540 587.433C541.151 586.786 542.046 585.874 542.685 584.697C543.333 583.513 543.657 582.119 543.657 580.517L544.628 580.722H536.753V577.909H546.725V580.722C546.725 582.878 546.265 584.753 545.344 586.347C544.432 587.94 543.171 589.176 541.56 590.054C539.958 590.923 538.117 591.358 536.037 591.358C533.719 591.358 531.682 590.812 529.926 589.722C528.179 588.631 526.816 587.08 525.836 585.068C524.864 583.057 524.378 580.67 524.378 577.909C524.378 575.838 524.655 573.976 525.209 572.322C525.772 570.661 526.564 569.246 527.587 568.078C528.61 566.911 529.82 566.016 531.218 565.393C532.615 564.771 534.154 564.46 535.833 564.46C537.213 564.46 538.5 564.669 539.694 565.087C540.895 565.496 541.965 566.08 542.902 566.838C543.848 567.588 544.637 568.487 545.267 569.536C545.898 570.575 546.333 571.73 546.571 573H543.299ZM552.155 591V564.818H567.854V567.631H555.325V576.477H566.678V579.29H555.325V591H552.155ZM506.17 635V608.818H515.017C517.063 608.818 518.741 609.168 520.054 609.866C521.366 610.557 522.338 611.507 522.969 612.717C523.599 613.928 523.915 615.304 523.915 616.847C523.915 618.389 523.599 619.757 522.969 620.95C522.338 622.143 521.371 623.081 520.067 623.763C518.763 624.436 517.097 624.773 515.068 624.773H507.909V621.909H514.966C516.364 621.909 517.489 621.705 518.341 621.295C519.202 620.886 519.824 620.307 520.207 619.557C520.599 618.798 520.795 617.895 520.795 616.847C520.795 615.798 520.599 614.882 520.207 614.098C519.815 613.314 519.189 612.709 518.328 612.283C517.467 611.848 516.33 611.631 514.915 611.631H509.341V635H506.17ZM518.494 623.239L524.938 635H521.256L514.915 623.239H518.494ZM527.766 611.631V608.818H547.402V611.631H539.169V635H535.999V611.631H527.766ZM552.295 635V608.818H567.994V611.631H555.466V620.477H566.818V623.29H555.466V635H552.295Z" fill="black"/>
<path d="M322.17 327V300.818H331.017C333.071 300.818 334.75 301.189 336.054 301.93C337.366 302.663 338.338 303.656 338.969 304.909C339.599 306.162 339.915 307.56 339.915 309.102C339.915 310.645 339.599 312.047 338.969 313.308C338.347 314.57 337.384 315.575 336.08 316.325C334.776 317.067 333.105 317.438 331.068 317.438H324.727V314.625H330.966C332.372 314.625 333.501 314.382 334.354 313.896C335.206 313.411 335.824 312.754 336.207 311.928C336.599 311.092 336.795 310.151 336.795 309.102C336.795 308.054 336.599 307.116 336.207 306.29C335.824 305.463 335.202 304.815 334.341 304.347C333.48 303.869 332.338 303.631 330.915 303.631H325.341V327H322.17ZM345.022 327V300.818H348.192V324.188H360.363V327H345.022ZM373.764 318.818H377.241L380.156 322.653L380.923 323.676L385.27 329.455H381.792L378.929 325.619L378.213 324.648L373.764 318.818ZM386.343 313.909C386.343 316.67 385.845 319.057 384.848 321.068C383.85 323.08 382.483 324.631 380.744 325.722C379.005 326.812 377.02 327.358 374.787 327.358C372.554 327.358 370.568 326.812 368.829 325.722C367.091 324.631 365.723 323.08 364.725 321.068C363.728 319.057 363.23 316.67 363.23 313.909C363.23 311.148 363.728 308.761 364.725 306.75C365.723 304.739 367.091 303.188 368.829 302.097C370.568 301.006 372.554 300.46 374.787 300.46C377.02 300.46 379.005 301.006 380.744 302.097C382.483 303.188 383.85 304.739 384.848 306.75C385.845 308.761 386.343 311.148 386.343 313.909ZM383.275 313.909C383.275 311.642 382.896 309.729 382.137 308.169C381.387 306.609 380.369 305.429 379.082 304.628C377.804 303.827 376.372 303.426 374.787 303.426C373.201 303.426 371.765 303.827 370.478 304.628C369.2 305.429 368.181 306.609 367.423 308.169C366.673 309.729 366.298 311.642 366.298 313.909C366.298 316.176 366.673 318.089 367.423 319.649C368.181 321.209 369.2 322.389 370.478 323.19C371.765 323.991 373.201 324.392 374.787 324.392C376.372 324.392 377.804 323.991 379.082 323.19C380.369 322.389 381.387 321.209 382.137 319.649C382.896 318.089 383.275 316.176 383.275 313.909ZM323.705 344.818L330.455 355.71H330.659L337.409 344.818H341.142L332.909 357.909L341.142 371H337.409L330.659 360.312H330.455L323.705 371H319.972L328.409 357.909L319.972 344.818H323.705ZM346.342 344.818L354.115 366.858H354.422L362.194 344.818H365.518L355.904 371H352.632L343.018 344.818H346.342ZM390.358 344.818V371H387.289L373.022 350.443H372.767V371H369.596V344.818H372.664L386.983 365.426H387.238V344.818H390.358Z" fill="black"/>
<path d="M322.17 477V450.818H331.324C333.148 450.818 334.652 451.134 335.837 451.764C337.021 452.386 337.903 453.226 338.483 454.283C339.063 455.331 339.352 456.494 339.352 457.773C339.352 458.898 339.152 459.827 338.751 460.56C338.359 461.293 337.839 461.872 337.192 462.298C336.553 462.724 335.858 463.04 335.108 463.244V463.5C335.909 463.551 336.714 463.832 337.524 464.344C338.334 464.855 339.011 465.588 339.557 466.543C340.102 467.497 340.375 468.665 340.375 470.045C340.375 471.358 340.077 472.538 339.48 473.587C338.884 474.635 337.942 475.466 336.655 476.08C335.368 476.693 333.693 477 331.631 477H322.17ZM325.341 474.188H331.631C333.702 474.188 335.172 473.787 336.041 472.986C336.919 472.176 337.358 471.196 337.358 470.045C337.358 469.159 337.132 468.341 336.68 467.591C336.229 466.832 335.585 466.227 334.75 465.776C333.915 465.315 332.926 465.085 331.784 465.085H325.341V474.188ZM325.341 462.324H331.222C332.176 462.324 333.037 462.136 333.804 461.761C334.58 461.386 335.193 460.858 335.645 460.176C336.105 459.494 336.335 458.693 336.335 457.773C336.335 456.622 335.935 455.646 335.134 454.845C334.332 454.036 333.063 453.631 331.324 453.631H325.341V462.324ZM367.675 463.909C367.675 466.67 367.177 469.057 366.18 471.068C365.183 473.08 363.815 474.631 362.076 475.722C360.337 476.812 358.352 477.358 356.119 477.358C353.886 477.358 351.9 476.812 350.161 475.722C348.423 474.631 347.055 473.08 346.058 471.068C345.06 469.057 344.562 466.67 344.562 463.909C344.562 461.148 345.06 458.761 346.058 456.75C347.055 454.739 348.423 453.188 350.161 452.097C351.9 451.006 353.886 450.46 356.119 450.46C358.352 450.46 360.337 451.006 362.076 452.097C363.815 453.188 365.183 454.739 366.18 456.75C367.177 458.761 367.675 461.148 367.675 463.909ZM364.607 463.909C364.607 461.642 364.228 459.729 363.469 458.169C362.719 456.609 361.701 455.429 360.414 454.628C359.136 453.827 357.704 453.426 356.119 453.426C354.533 453.426 353.097 453.827 351.81 454.628C350.532 455.429 349.513 456.609 348.755 458.169C348.005 459.729 347.63 461.642 347.63 463.909C347.63 466.176 348.005 468.089 348.755 469.649C349.513 471.209 350.532 472.389 351.81 473.19C353.097 473.991 354.533 474.392 356.119 474.392C357.704 474.392 359.136 473.991 360.414 473.19C361.701 472.389 362.719 471.209 363.469 469.649C364.228 468.089 364.607 466.176 364.607 463.909ZM373.006 477V450.818H388.808V453.631H376.177V462.477H387.989V465.29H376.177V474.188H389.012V477H373.006ZM322.17 521V494.818H331.017C333.063 494.818 334.741 495.168 336.054 495.866C337.366 496.557 338.338 497.507 338.969 498.717C339.599 499.928 339.915 501.304 339.915 502.847C339.915 504.389 339.599 505.757 338.969 506.95C338.338 508.143 337.371 509.081 336.067 509.763C334.763 510.436 333.097 510.773 331.068 510.773H323.909V507.909H330.966C332.364 507.909 333.489 507.705 334.341 507.295C335.202 506.886 335.824 506.307 336.207 505.557C336.599 504.798 336.795 503.895 336.795 502.847C336.795 501.798 336.599 500.882 336.207 500.098C335.815 499.314 335.189 498.709 334.328 498.283C333.467 497.848 332.33 497.631 330.915 497.631H325.341V521H322.17ZM334.494 509.239L340.938 521H337.256L330.915 509.239H334.494ZM343.766 497.631V494.818H363.402V497.631H355.169V521H351.999V497.631H343.766ZM368.295 521V494.818H383.994V497.631H371.466V506.477H382.818V509.29H371.466V521H368.295Z" fill="black"/>
<path d="M323.244 624H319.92L329.534 597.818H332.807L342.42 624H339.097L331.273 601.96H331.068L323.244 624ZM324.472 613.773H337.869V616.585H324.472V613.773ZM345.629 624V621.699L359.743 600.631H345.476V597.818H363.527V600.119L349.413 621.188H363.68V624H345.629ZM370.533 597.818L377.283 608.71H377.487L384.237 597.818H387.97L379.737 610.909L387.97 624H384.237L377.487 613.312H377.283L370.533 624H366.8L375.237 610.909L366.8 597.818H370.533ZM322.17 668V641.818H325.341V665.188H337.511V668H322.17ZM359.299 650C359.017 649.139 358.647 648.368 358.186 647.686C357.735 646.996 357.194 646.408 356.563 645.922C355.941 645.436 355.233 645.065 354.441 644.81C353.648 644.554 352.779 644.426 351.833 644.426C350.282 644.426 348.871 644.827 347.601 645.628C346.331 646.429 345.321 647.609 344.571 649.169C343.821 650.729 343.446 652.642 343.446 654.909C343.446 657.176 343.826 659.089 344.584 660.649C345.343 662.209 346.37 663.389 347.665 664.19C348.961 664.991 350.418 665.392 352.037 665.392C353.537 665.392 354.858 665.072 356 664.433C357.151 663.786 358.046 662.874 358.685 661.697C359.333 660.513 359.657 659.119 359.657 657.517L360.628 657.722H352.753V654.909H362.725V657.722C362.725 659.878 362.265 661.753 361.344 663.347C360.432 664.94 359.171 666.176 357.56 667.054C355.958 667.923 354.117 668.358 352.037 668.358C349.719 668.358 347.682 667.812 345.926 666.722C344.179 665.631 342.816 664.08 341.836 662.068C340.864 660.057 340.378 657.67 340.378 654.909C340.378 652.838 340.655 650.976 341.209 649.322C341.772 647.661 342.564 646.246 343.587 645.078C344.61 643.911 345.82 643.016 347.218 642.393C348.615 641.771 350.154 641.46 351.833 641.46C353.213 641.46 354.5 641.669 355.694 642.087C356.895 642.496 357.965 643.08 358.902 643.838C359.848 644.588 360.637 645.487 361.267 646.536C361.898 647.575 362.333 648.73 362.571 650H359.299ZM368.155 668V641.818H383.854V644.631H371.325V653.477H382.678V656.29H371.325V668H368.155Z" fill="black"/>
<path d="M330.25 747H322.17V720.818H330.608C333.148 720.818 335.321 721.342 337.128 722.391C338.935 723.43 340.32 724.926 341.283 726.878C342.246 728.821 342.727 731.148 342.727 733.858C342.727 736.585 342.241 738.933 341.27 740.902C340.298 742.862 338.884 744.371 337.026 745.428C335.168 746.476 332.909 747 330.25 747ZM325.341 744.188H330.045C332.21 744.188 334.004 743.77 335.428 742.935C336.851 742.099 337.912 740.911 338.611 739.368C339.31 737.825 339.659 735.989 339.659 733.858C339.659 731.744 339.314 729.925 338.624 728.399C337.933 726.865 336.902 725.689 335.53 724.871C334.158 724.044 332.449 723.631 330.403 723.631H325.341V744.188ZM348.045 747V720.818H356.892C358.946 720.818 360.625 721.189 361.929 721.93C363.241 722.663 364.213 723.656 364.844 724.909C365.474 726.162 365.79 727.56 365.79 729.102C365.79 730.645 365.474 732.047 364.844 733.308C364.222 734.57 363.259 735.575 361.955 736.325C360.651 737.067 358.98 737.438 356.943 737.438H350.602V734.625H356.841C358.247 734.625 359.376 734.382 360.229 733.896C361.081 733.411 361.699 732.754 362.082 731.928C362.474 731.092 362.67 730.151 362.67 729.102C362.67 728.054 362.474 727.116 362.082 726.29C361.699 725.463 361.077 724.815 360.216 724.347C359.355 723.869 358.213 723.631 356.79 723.631H351.216V747H348.045ZM392.988 733.909C392.988 736.67 392.489 739.057 391.492 741.068C390.495 743.08 389.127 744.631 387.388 745.722C385.65 746.812 383.664 747.358 381.431 747.358C379.198 747.358 377.212 746.812 375.474 745.722C373.735 744.631 372.367 743.08 371.37 741.068C370.373 739.057 369.874 736.67 369.874 733.909C369.874 731.148 370.373 728.761 371.37 726.75C372.367 724.739 373.735 723.188 375.474 722.097C377.212 721.006 379.198 720.46 381.431 720.46C383.664 720.46 385.65 721.006 387.388 722.097C389.127 723.188 390.495 724.739 391.492 726.75C392.489 728.761 392.988 731.148 392.988 733.909ZM389.92 733.909C389.92 731.642 389.54 729.729 388.782 728.169C388.032 726.609 387.013 725.429 385.727 724.628C384.448 723.827 383.016 723.426 381.431 723.426C379.846 723.426 378.41 723.827 377.123 724.628C375.844 725.429 374.826 726.609 374.067 728.169C373.317 729.729 372.942 731.642 372.942 733.909C372.942 736.176 373.317 738.089 374.067 739.649C374.826 741.209 375.844 742.389 377.123 743.19C378.41 743.991 379.846 744.392 381.431 744.392C383.016 744.392 384.448 743.991 385.727 743.19C387.013 742.389 388.032 741.209 388.782 739.649C389.54 738.089 389.92 736.176 389.92 733.909Z" fill="black"/>
<path d="M514.25 747H506.17V720.818H514.608C517.148 720.818 519.321 721.342 521.128 722.391C522.935 723.43 524.32 724.926 525.283 726.878C526.246 728.821 526.727 731.148 526.727 733.858C526.727 736.585 526.241 738.933 525.27 740.902C524.298 742.862 522.884 744.371 521.026 745.428C519.168 746.476 516.909 747 514.25 747ZM509.341 744.188H514.045C516.21 744.188 518.004 743.77 519.428 742.935C520.851 742.099 521.912 740.911 522.611 739.368C523.31 737.825 523.659 735.989 523.659 733.858C523.659 731.744 523.314 729.925 522.624 728.399C521.933 726.865 520.902 725.689 519.53 724.871C518.158 724.044 516.449 723.631 514.403 723.631H509.341V744.188ZM532.045 747V720.818H540.892C542.946 720.818 544.625 721.189 545.929 721.93C547.241 722.663 548.213 723.656 548.844 724.909C549.474 726.162 549.79 727.56 549.79 729.102C549.79 730.645 549.474 732.047 548.844 733.308C548.222 734.57 547.259 735.575 545.955 736.325C544.651 737.067 542.98 737.438 540.943 737.438H534.602V734.625H540.841C542.247 734.625 543.376 734.382 544.229 733.896C545.081 733.411 545.699 732.754 546.082 731.928C546.474 731.092 546.67 730.151 546.67 729.102C546.67 728.054 546.474 727.116 546.082 726.29C545.699 725.463 545.077 724.815 544.216 724.347C543.355 723.869 542.213 723.631 540.79 723.631H535.216V747H532.045ZM576.988 733.909C576.988 736.67 576.489 739.057 575.492 741.068C574.495 743.08 573.127 744.631 571.388 745.722C569.65 746.812 567.664 747.358 565.431 747.358C563.198 747.358 561.212 746.812 559.474 745.722C557.735 744.631 556.367 743.08 555.37 741.068C554.373 739.057 553.874 736.67 553.874 733.909C553.874 731.148 554.373 728.761 555.37 726.75C556.367 724.739 557.735 723.188 559.474 722.097C561.212 721.006 563.198 720.46 565.431 720.46C567.664 720.46 569.65 721.006 571.388 722.097C573.127 723.188 574.495 724.739 575.492 726.75C576.489 728.761 576.988 731.148 576.988 733.909ZM573.92 733.909C573.92 731.642 573.54 729.729 572.782 728.169C572.032 726.609 571.013 725.429 569.727 724.628C568.448 723.827 567.016 723.426 565.431 723.426C563.846 723.426 562.41 723.827 561.123 724.628C559.844 725.429 558.826 726.609 558.067 728.169C557.317 729.729 556.942 731.642 556.942 733.909C556.942 736.176 557.317 738.089 558.067 739.649C558.826 741.209 559.844 742.389 561.123 743.19C562.41 743.991 563.846 744.392 565.431 744.392C567.016 744.392 568.448 743.991 569.727 743.19C571.013 742.389 572.032 741.209 572.782 739.649C573.54 738.089 573.92 736.176 573.92 733.909Z" fill="black"/>
<path d="M698.25 751H690.17V724.818H698.608C701.148 724.818 703.321 725.342 705.128 726.391C706.935 727.43 708.32 728.926 709.283 730.878C710.246 732.821 710.727 735.148 710.727 737.858C710.727 740.585 710.241 742.933 709.27 744.902C708.298 746.862 706.884 748.371 705.026 749.428C703.168 750.476 700.909 751 698.25 751ZM693.341 748.188H698.045C700.21 748.188 702.004 747.77 703.428 746.935C704.851 746.099 705.912 744.911 706.611 743.368C707.31 741.825 707.659 739.989 707.659 737.858C707.659 735.744 707.314 733.925 706.624 732.399C705.933 730.865 704.902 729.689 703.53 728.871C702.158 728.044 700.449 727.631 698.403 727.631H693.341V748.188ZM716.045 751V724.818H724.892C726.946 724.818 728.625 725.189 729.929 725.93C731.241 726.663 732.213 727.656 732.844 728.909C733.474 730.162 733.79 731.56 733.79 733.102C733.79 734.645 733.474 736.047 732.844 737.308C732.222 738.57 731.259 739.575 729.955 740.325C728.651 741.067 726.98 741.438 724.943 741.438H718.602V738.625H724.841C726.247 738.625 727.376 738.382 728.229 737.896C729.081 737.411 729.699 736.754 730.082 735.928C730.474 735.092 730.67 734.151 730.67 733.102C730.67 732.054 730.474 731.116 730.082 730.29C729.699 729.463 729.077 728.815 728.216 728.347C727.355 727.869 726.213 727.631 724.79 727.631H719.216V751H716.045ZM760.988 737.909C760.988 740.67 760.489 743.057 759.492 745.068C758.495 747.08 757.127 748.631 755.388 749.722C753.65 750.812 751.664 751.358 749.431 751.358C747.198 751.358 745.212 750.812 743.474 749.722C741.735 748.631 740.367 747.08 739.37 745.068C738.373 743.057 737.874 740.67 737.874 737.909C737.874 735.148 738.373 732.761 739.37 730.75C740.367 728.739 741.735 727.188 743.474 726.097C745.212 725.006 747.198 724.46 749.431 724.46C751.664 724.46 753.65 725.006 755.388 726.097C757.127 727.188 758.495 728.739 759.492 730.75C760.489 732.761 760.988 735.148 760.988 737.909ZM757.92 737.909C757.92 735.642 757.54 733.729 756.782 732.169C756.032 730.609 755.013 729.429 753.727 728.628C752.448 727.827 751.016 727.426 749.431 727.426C747.846 727.426 746.41 727.827 745.123 728.628C743.844 729.429 742.826 730.609 742.067 732.169C741.317 733.729 740.942 735.642 740.942 737.909C740.942 740.176 741.317 742.089 742.067 743.649C742.826 745.209 743.844 746.389 745.123 747.19C746.41 747.991 747.846 748.392 749.431 748.392C751.016 748.392 752.448 747.991 753.727 747.19C755.013 746.389 756.032 745.209 756.782 743.649C757.54 742.089 757.92 740.176 757.92 737.909Z" fill="black"/>
<path d="M856.091 62.7273C852.939 62.7273 850.174 61.9773 847.795 60.4773C845.432 58.9773 843.583 56.8788 842.25 54.1818C840.932 51.4848 840.273 48.3333 840.273 44.7273C840.273 41.0909 840.932 37.9167 842.25 35.2045C843.583 32.4924 845.432 30.3864 847.795 28.8864C850.174 27.3864 852.939 26.6364 856.091 26.6364C859.242 26.6364 862 27.3864 864.364 28.8864C866.742 30.3864 868.591 32.4924 869.909 35.2045C871.242 37.9167 871.909 41.0909 871.909 44.7273C871.909 48.3333 871.242 51.4848 869.909 54.1818C868.591 56.8788 866.742 58.9773 864.364 60.4773C862 61.9773 859.242 62.7273 856.091 62.7273ZM856.091 57.9091C858.485 57.9091 860.455 57.2955 862 56.0682C863.545 54.8409 864.689 53.2273 865.432 51.2273C866.174 49.2273 866.545 47.0606 866.545 44.7273C866.545 42.3939 866.174 40.2197 865.432 38.2045C864.689 36.1894 863.545 34.5606 862 33.3182C860.455 32.0758 858.485 31.4545 856.091 31.4545C853.697 31.4545 851.727 32.0758 850.182 33.3182C848.636 34.5606 847.492 36.1894 846.75 38.2045C846.008 40.2197 845.636 42.3939 845.636 44.7273C845.636 47.0606 846.008 49.2273 846.75 51.2273C847.492 53.2273 848.636 54.8409 850.182 56.0682C851.727 57.2955 853.697 57.9091 856.091 57.9091ZM902.097 47.7273V27.0909H907.46V62H902.097V56.0909H901.733C900.915 57.8636 899.642 59.3712 897.915 60.6136C896.188 61.8409 894.006 62.4545 891.369 62.4545C889.188 62.4545 887.248 61.9773 885.551 61.0227C883.854 60.053 882.521 58.5985 881.551 56.6591C880.581 54.7045 880.097 52.2424 880.097 49.2727V27.0909H885.46V48.9091C885.46 51.4545 886.172 53.4848 887.597 55C889.036 56.5152 890.869 57.2727 893.097 57.2727C894.43 57.2727 895.786 56.9318 897.165 56.25C898.559 55.5682 899.725 54.5227 900.665 53.1136C901.619 51.7045 902.097 49.9091 902.097 47.7273ZM932.466 27.0909V31.6364H914.375V27.0909H932.466ZM919.648 18.7273H925.011V52C925.011 53.5152 925.231 54.6515 925.67 55.4091C926.125 56.1515 926.701 56.6515 927.398 56.9091C928.11 57.1515 928.86 57.2727 929.648 57.2727C930.239 57.2727 930.723 57.2424 931.102 57.1818C931.481 57.1061 931.784 57.0455 932.011 57L933.102 61.8182C932.739 61.9545 932.231 62.0909 931.58 62.2273C930.928 62.3788 930.102 62.4545 929.102 62.4545C927.587 62.4545 926.102 62.1288 924.648 61.4773C923.208 60.8258 922.011 59.8333 921.057 58.5C920.117 57.1667 919.648 55.4848 919.648 53.4545V18.7273ZM940.534 75.0909V27.0909H945.716V32.6364H946.352C946.746 32.0303 947.292 31.2576 947.989 30.3182C948.701 29.3636 949.716 28.5152 951.034 27.7727C952.367 27.0152 954.17 26.6364 956.443 26.6364C959.383 26.6364 961.973 27.3712 964.216 28.8409C966.458 30.3106 968.208 32.3939 969.466 35.0909C970.723 37.7879 971.352 40.9697 971.352 44.6364C971.352 48.3333 970.723 51.5379 969.466 54.25C968.208 56.947 966.466 59.0379 964.239 60.5227C962.011 61.9924 959.443 62.7273 956.534 62.7273C954.292 62.7273 952.496 62.3561 951.148 61.6136C949.799 60.8561 948.761 60 948.034 59.0455C947.307 58.0758 946.746 57.2727 946.352 56.6364H945.898V75.0909H940.534ZM945.807 44.5455C945.807 47.1818 946.193 49.5076 946.966 51.5227C947.739 53.5227 948.867 55.0909 950.352 56.2273C951.837 57.3485 953.655 57.9091 955.807 57.9091C958.049 57.9091 959.92 57.3182 961.42 56.1364C962.936 54.9394 964.072 53.3333 964.83 51.3182C965.602 49.2879 965.989 47.0303 965.989 44.5455C965.989 42.0909 965.61 39.8788 964.852 37.9091C964.11 35.9242 962.981 34.3561 961.466 33.2045C959.966 32.0379 958.08 31.4545 955.807 31.4545C953.625 31.4545 951.792 32.0076 950.307 33.1136C948.822 34.2045 947.701 35.7348 946.943 37.7045C946.186 39.6591 945.807 41.9394 945.807 44.5455ZM1001.53 47.7273V27.0909H1006.9V62H1001.53V56.0909H1001.17C1000.35 57.8636 999.08 59.3712 997.352 60.6136C995.625 61.8409 993.443 62.4545 990.807 62.4545C988.625 62.4545 986.686 61.9773 984.989 61.0227C983.292 60.053 981.958 58.5985 980.989 56.6591C980.019 54.7045 979.534 52.2424 979.534 49.2727V27.0909H984.898V48.9091C984.898 51.4545 985.61 53.4848 987.034 55C988.473 56.5152 990.307 57.2727 992.534 57.2727C993.867 57.2727 995.223 56.9318 996.602 56.25C997.996 55.5682 999.163 54.5227 1000.1 53.1136C1001.06 51.7045 1001.53 49.9091 1001.53 47.7273ZM1031.9 27.0909V31.6364H1013.81V27.0909H1031.9ZM1019.09 18.7273H1024.45V52C1024.45 53.5152 1024.67 54.6515 1025.11 55.4091C1025.56 56.1515 1026.14 56.6515 1026.84 56.9091C1027.55 57.1515 1028.3 57.2727 1029.09 57.2727C1029.68 57.2727 1030.16 57.2424 1030.54 57.1818C1030.92 57.1061 1031.22 57.0455 1031.45 57L1032.54 61.8182C1032.18 61.9545 1031.67 62.0909 1031.02 62.2273C1030.37 62.3788 1029.54 62.4545 1028.54 62.4545C1027.02 62.4545 1025.54 62.1288 1024.09 61.4773C1022.65 60.8258 1021.45 59.8333 1020.49 58.5C1019.55 57.1667 1019.09 55.4848 1019.09 53.4545V18.7273ZM1073.52 27.0909V31.6364H1054.7V27.0909H1073.52ZM1060.34 62V22.2727C1060.34 20.2727 1060.8 18.6061 1061.74 17.2727C1062.68 15.9394 1063.9 14.9394 1065.4 14.2727C1066.9 13.6061 1068.49 13.2727 1070.15 13.2727C1071.47 13.2727 1072.55 13.3788 1073.38 13.5909C1074.21 13.803 1074.84 14 1075.24 14.1818L1073.7 18.8182C1073.43 18.7273 1073.05 18.6136 1072.56 18.4773C1072.09 18.3409 1071.47 18.2727 1070.7 18.2727C1068.93 18.2727 1067.65 18.7197 1066.86 19.6136C1066.09 20.5076 1065.7 21.8182 1065.7 23.5455V62H1060.34ZM1081.03 62V27.0909H1086.4V62H1081.03ZM1083.76 21.2727C1082.72 21.2727 1081.81 20.9167 1081.06 20.2045C1080.31 19.4924 1079.94 18.6364 1079.94 17.6364C1079.94 16.6364 1080.31 15.7803 1081.06 15.0682C1081.81 14.3561 1082.72 14 1083.76 14C1084.81 14 1085.7 14.3561 1086.44 15.0682C1087.2 15.7803 1087.58 16.6364 1087.58 17.6364C1087.58 18.6364 1087.2 19.4924 1086.44 20.2045C1085.7 20.9167 1084.81 21.2727 1083.76 21.2727ZM1101.59 15.4545V62H1096.22V15.4545H1101.59ZM1126.05 62.7273C1122.68 62.7273 1119.78 61.9848 1117.34 60.5C1114.92 59 1113.05 56.9091 1111.73 54.2273C1110.42 51.5303 1109.77 48.3939 1109.77 44.8182C1109.77 41.2424 1110.42 38.0909 1111.73 35.3636C1113.05 32.6212 1114.88 30.4848 1117.23 28.9545C1119.59 27.4091 1122.35 26.6364 1125.5 26.6364C1127.32 26.6364 1129.11 26.9394 1130.89 27.5455C1132.66 28.1515 1134.27 29.1364 1135.73 30.5C1137.18 31.8485 1138.34 33.6364 1139.2 35.8636C1140.07 38.0909 1140.5 40.8333 1140.5 44.0909V46.3636H1113.59V41.7273H1135.05C1135.05 39.7576 1134.65 38 1133.86 36.4545C1133.09 34.9091 1131.98 33.6894 1130.55 32.7955C1129.12 31.9015 1127.44 31.4545 1125.5 31.4545C1123.36 31.4545 1121.52 31.9848 1119.95 33.0455C1118.41 34.0909 1117.22 35.4545 1116.39 37.1364C1115.55 38.8182 1115.14 40.6212 1115.14 42.5455V45.6364C1115.14 48.2727 1115.59 50.5076 1116.5 52.3409C1117.42 54.1591 1118.7 55.5455 1120.34 56.5C1121.98 57.4394 1123.88 57.9091 1126.05 57.9091C1127.45 57.9091 1128.73 57.7121 1129.86 57.3182C1131.02 56.9091 1132.01 56.303 1132.84 55.5C1133.67 54.6818 1134.32 53.6667 1134.77 52.4545L1139.95 53.9091C1139.41 55.6667 1138.49 57.2121 1137.2 58.5455C1135.92 59.8636 1134.33 60.8939 1132.43 61.6364C1130.54 62.3636 1128.41 62.7273 1126.05 62.7273Z" fill="black"/>
<rect x="14" y="96" width="205" height="724" fill="#C4C4C4"/>
<path d="M43.6364 175V128.455H49.2727V151.545H49.8182L70.7273 128.455H78.0909L58.5455 149.455L78.0909 175H71.2727L55.0909 153.364L49.2727 159.909V175H43.6364ZM85.3864 175V128.455H91.0227V149.182H115.841V128.455H121.477V175H115.841V154.182H91.0227V175H85.3864ZM164.58 143C164.08 141.47 163.42 140.098 162.602 138.886C161.799 137.659 160.837 136.614 159.716 135.75C158.61 134.886 157.352 134.227 155.943 133.773C154.534 133.318 152.989 133.091 151.307 133.091C148.549 133.091 146.042 133.803 143.784 135.227C141.527 136.652 139.731 138.75 138.398 141.523C137.064 144.295 136.398 147.697 136.398 151.727C136.398 155.758 137.072 159.159 138.42 161.932C139.769 164.705 141.595 166.803 143.898 168.227C146.201 169.652 148.792 170.364 151.67 170.364C154.337 170.364 156.686 169.795 158.716 168.659C160.761 167.508 162.352 165.886 163.489 163.795C164.64 161.689 165.216 159.212 165.216 156.364L166.943 156.727H152.943V151.727H170.67V156.727C170.67 160.561 169.852 163.894 168.216 166.727C166.595 169.561 164.352 171.758 161.489 173.318C158.64 174.864 155.367 175.636 151.67 175.636C147.549 175.636 143.928 174.667 140.807 172.727C137.701 170.788 135.277 168.03 133.534 164.455C131.807 160.879 130.943 156.636 130.943 151.727C130.943 148.045 131.436 144.735 132.42 141.795C133.42 138.841 134.83 136.326 136.648 134.25C138.466 132.174 140.617 130.583 143.102 129.477C145.587 128.371 148.322 127.818 151.307 127.818C153.761 127.818 156.049 128.189 158.17 128.932C160.307 129.659 162.208 130.697 163.875 132.045C165.557 133.379 166.958 134.977 168.08 136.841C169.201 138.689 169.973 140.742 170.398 143H164.58ZM61.4545 205.455H67.0909V238.727C67.0909 241.697 66.5455 244.22 65.4545 246.295C64.3636 248.371 62.8258 249.947 60.8409 251.023C58.8561 252.098 56.5152 252.636 53.8182 252.636C51.2727 252.636 49.0076 252.174 47.0227 251.25C45.0379 250.311 43.4773 248.977 42.3409 247.25C41.2045 245.523 40.6364 243.47 40.6364 241.091H46.1818C46.1818 242.409 46.5076 243.561 47.1591 244.545C47.8258 245.515 48.7348 246.273 49.8864 246.818C51.0379 247.364 52.3485 247.636 53.8182 247.636C55.4394 247.636 56.8182 247.295 57.9545 246.614C59.0909 245.932 59.9545 244.932 60.5455 243.614C61.1515 242.28 61.4545 240.652 61.4545 238.727V205.455ZM78.3864 252V205.455H84.0227V228.545H84.5682L105.477 205.455H112.841L93.2955 226.455L112.841 252H106.023L89.8409 230.364L84.0227 236.909V252H78.3864ZM134.858 237.455H141.04L146.222 244.273L147.585 246.091L155.312 256.364H149.131L144.04 249.545L142.767 247.818L134.858 237.455ZM157.222 228.727C157.222 233.636 156.335 237.879 154.562 241.455C152.79 245.03 150.358 247.788 147.267 249.727C144.176 251.667 140.646 252.636 136.676 252.636C132.706 252.636 129.176 251.667 126.085 249.727C122.994 247.788 120.563 245.03 118.79 241.455C117.017 237.879 116.131 233.636 116.131 228.727C116.131 223.818 117.017 219.576 118.79 216C120.563 212.424 122.994 209.667 126.085 207.727C129.176 205.788 132.706 204.818 136.676 204.818C140.646 204.818 144.176 205.788 147.267 207.727C150.358 209.667 152.79 212.424 154.562 216C156.335 219.576 157.222 223.818 157.222 228.727ZM151.767 228.727C151.767 224.697 151.093 221.295 149.744 218.523C148.411 215.75 146.6 213.652 144.312 212.227C142.04 210.803 139.494 210.091 136.676 210.091C133.858 210.091 131.305 210.803 129.017 212.227C126.744 213.652 124.934 215.75 123.585 218.523C122.252 221.295 121.585 224.697 121.585 228.727C121.585 232.758 122.252 236.159 123.585 238.932C124.934 241.705 126.744 243.803 129.017 245.227C131.305 246.652 133.858 247.364 136.676 247.364C139.494 247.364 142.04 246.652 144.312 245.227C146.6 243.803 148.411 241.705 149.744 238.932C151.093 236.159 151.767 232.758 151.767 228.727ZM46.3636 282.455L58.3636 301.818H58.7273L70.7273 282.455H77.3636L62.7273 305.727L77.3636 329H70.7273L58.7273 310H58.3636L46.3636 329H39.7273L54.7273 305.727L39.7273 282.455H46.3636ZM86.608 282.455L100.426 321.636H100.972L114.79 282.455H120.699L103.608 329H97.7898L80.6989 282.455H86.608ZM164.858 282.455V329H159.403L134.04 292.455H133.585V329H127.949V282.455H133.403L158.858 319.091H159.312V282.455H164.858ZM43.6364 406V359.455H59.3636C63.0152 359.455 66 360.114 68.3182 361.432C70.6515 362.735 72.3788 364.5 73.5 366.727C74.6212 368.955 75.1818 371.439 75.1818 374.182C75.1818 376.924 74.6212 379.417 73.5 381.659C72.3939 383.902 70.6818 385.689 68.3636 387.023C66.0455 388.341 63.0758 389 59.4545 389H48.1818V384H59.2727C61.7727 384 63.7803 383.568 65.2955 382.705C66.8106 381.841 67.9091 380.674 68.5909 379.205C69.2879 377.72 69.6364 376.045 69.6364 374.182C69.6364 372.318 69.2879 370.652 68.5909 369.182C67.9091 367.712 66.803 366.561 65.2727 365.727C63.7424 364.879 61.7121 364.455 59.1818 364.455H49.2727V406H43.6364ZM84.2614 406V359.455H89.8977V401H111.534V406H84.2614ZM135.358 391.455H141.54L146.722 398.273L148.085 400.091L155.812 410.364H149.631L144.54 403.545L143.267 401.818L135.358 391.455ZM157.722 382.727C157.722 387.636 156.835 391.879 155.062 395.455C153.29 399.03 150.858 401.788 147.767 403.727C144.676 405.667 141.146 406.636 137.176 406.636C133.206 406.636 129.676 405.667 126.585 403.727C123.494 401.788 121.063 399.03 119.29 395.455C117.517 391.879 116.631 387.636 116.631 382.727C116.631 377.818 117.517 373.576 119.29 370C121.063 366.424 123.494 363.667 126.585 361.727C129.676 359.788 133.206 358.818 137.176 358.818C141.146 358.818 144.676 359.788 147.767 361.727C150.858 363.667 153.29 366.424 155.062 370C156.835 373.576 157.722 377.818 157.722 382.727ZM152.267 382.727C152.267 378.697 151.593 375.295 150.244 372.523C148.911 369.75 147.1 367.652 144.812 366.227C142.54 364.803 139.994 364.091 137.176 364.091C134.358 364.091 131.805 364.803 129.517 366.227C127.244 367.652 125.434 369.75 124.085 372.523C122.752 375.295 122.085 378.697 122.085 382.727C122.085 386.758 122.752 390.159 124.085 392.932C125.434 395.705 127.244 397.803 129.517 399.227C131.805 400.652 134.358 401.364 137.176 401.364C139.994 401.364 142.54 400.652 144.812 399.227C147.1 397.803 148.911 395.705 150.244 392.932C151.593 390.159 152.267 386.758 152.267 382.727ZM43.6364 483V436.455H59.3636C63 436.455 65.9848 437.076 68.3182 438.318C70.6515 439.545 72.3788 441.235 73.5 443.386C74.6212 445.538 75.1818 447.985 75.1818 450.727C75.1818 453.47 74.6212 455.902 73.5 458.023C72.3788 460.144 70.6591 461.811 68.3409 463.023C66.0227 464.22 63.0606 464.818 59.4545 464.818H46.7273V459.727H59.2727C61.7576 459.727 63.7576 459.364 65.2727 458.636C66.803 457.909 67.9091 456.879 68.5909 455.545C69.2879 454.197 69.6364 452.591 69.6364 450.727C69.6364 448.864 69.2879 447.235 68.5909 445.841C67.8939 444.447 66.7803 443.371 65.25 442.614C63.7197 441.841 61.697 441.455 59.1818 441.455H49.2727V483H43.6364ZM65.5455 462.091L77 483H70.4545L59.1818 462.091H65.5455ZM82.0284 441.455V436.455H116.938V441.455H102.301V483H96.6648V441.455H82.0284ZM125.636 483V436.455H153.545V441.455H131.273V457.182H151.455V462.182H131.273V483H125.636ZM43.6364 560V513.455H59.9091C63.1515 513.455 65.8258 514.015 67.9318 515.136C70.0379 516.242 71.6061 517.735 72.6364 519.614C73.6667 521.477 74.1818 523.545 74.1818 525.818C74.1818 527.818 73.8258 529.47 73.1136 530.773C72.4167 532.076 71.4924 533.106 70.3409 533.864C69.2045 534.621 67.9697 535.182 66.6364 535.545V536C68.0606 536.091 69.4924 536.591 70.9318 537.5C72.3712 538.409 73.5758 539.712 74.5455 541.409C75.5152 543.106 76 545.182 76 547.636C76 549.97 75.4697 552.068 74.4091 553.932C73.3485 555.795 71.6742 557.273 69.3864 558.364C67.0985 559.455 64.1212 560 60.4545 560H43.6364ZM49.2727 555H60.4545C64.1364 555 66.75 554.288 68.2955 552.864C69.8561 551.424 70.6364 549.682 70.6364 547.636C70.6364 546.061 70.2348 544.606 69.4318 543.273C68.6288 541.924 67.4848 540.848 66 540.045C64.5152 539.227 62.7576 538.818 60.7273 538.818H49.2727V555ZM49.2727 533.909H59.7273C61.4242 533.909 62.9545 533.576 64.3182 532.909C65.697 532.242 66.7879 531.303 67.5909 530.091C68.4091 528.879 68.8182 527.455 68.8182 525.818C68.8182 523.773 68.1061 522.038 66.6818 520.614C65.2576 519.174 63 518.455 59.9091 518.455H49.2727V533.909ZM124.534 536.727C124.534 541.636 123.648 545.879 121.875 549.455C120.102 553.03 117.67 555.788 114.58 557.727C111.489 559.667 107.958 560.636 103.989 560.636C100.019 560.636 96.4886 559.667 93.3977 557.727C90.3068 555.788 87.875 553.03 86.1023 549.455C84.3295 545.879 83.4432 541.636 83.4432 536.727C83.4432 531.818 84.3295 527.576 86.1023 524C87.875 520.424 90.3068 517.667 93.3977 515.727C96.4886 513.788 100.019 512.818 103.989 512.818C107.958 512.818 111.489 513.788 114.58 515.727C117.67 517.667 120.102 520.424 121.875 524C123.648 527.576 124.534 531.818 124.534 536.727ZM119.08 536.727C119.08 532.697 118.405 529.295 117.057 526.523C115.723 523.75 113.913 521.652 111.625 520.227C109.352 518.803 106.807 518.091 103.989 518.091C101.17 518.091 98.6174 518.803 96.3295 520.227C94.0568 521.652 92.2462 523.75 90.8977 526.523C89.5644 529.295 88.8977 532.697 88.8977 536.727C88.8977 540.758 89.5644 544.159 90.8977 546.932C92.2462 549.705 94.0568 551.803 96.3295 553.227C98.6174 554.652 101.17 555.364 103.989 555.364C106.807 555.364 109.352 554.652 111.625 553.227C113.913 551.803 115.723 549.705 117.057 546.932C118.405 544.159 119.08 540.758 119.08 536.727ZM134.011 560V513.455H162.102V518.455H139.648V534.182H160.648V539.182H139.648V555H162.466V560H134.011ZM45.5455 637H39.6364L56.7273 590.455H62.5455L79.6364 637H73.7273L59.8182 597.818H59.4545L45.5455 637ZM47.7273 618.818H71.5455V623.818H47.7273V618.818ZM85.3409 637V632.909L110.432 595.455H85.0682V590.455H117.159V594.545L92.0682 632H117.432V637H85.3409ZM129.614 590.455L141.614 609.818H141.977L153.977 590.455H160.614L145.977 613.727L160.614 637H153.977L141.977 618H141.614L129.614 637H122.977L137.977 613.727L122.977 590.455H129.614ZM43.6364 714V667.455H49.2727V709H70.9091V714H43.6364ZM109.642 682C109.142 680.47 108.483 679.098 107.665 677.886C106.862 676.659 105.9 675.614 104.778 674.75C103.672 673.886 102.415 673.227 101.006 672.773C99.5966 672.318 98.0511 672.091 96.3693 672.091C93.6117 672.091 91.1042 672.803 88.8466 674.227C86.589 675.652 84.7936 677.75 83.4602 680.523C82.1269 683.295 81.4602 686.697 81.4602 690.727C81.4602 694.758 82.1345 698.159 83.483 700.932C84.8314 703.705 86.6572 705.803 88.9602 707.227C91.2633 708.652 93.8542 709.364 96.733 709.364C99.3996 709.364 101.748 708.795 103.778 707.659C105.824 706.508 107.415 704.886 108.551 702.795C109.703 700.689 110.278 698.212 110.278 695.364L112.006 695.727H98.0057V690.727H115.733V695.727C115.733 699.561 114.915 702.894 113.278 705.727C111.657 708.561 109.415 710.758 106.551 712.318C103.703 713.864 100.43 714.636 96.733 714.636C92.6117 714.636 88.9905 713.667 85.8693 711.727C82.7633 709.788 80.339 707.03 78.5966 703.455C76.8693 699.879 76.0057 695.636 76.0057 690.727C76.0057 687.045 76.4981 683.735 77.483 680.795C78.483 677.841 79.892 675.326 81.7102 673.25C83.5284 671.174 85.6799 669.583 88.1648 668.477C90.6496 667.371 93.3845 666.818 96.3693 666.818C98.8239 666.818 101.112 667.189 103.233 667.932C105.369 668.659 107.271 669.697 108.938 671.045C110.619 672.379 112.021 673.977 113.142 675.841C114.263 677.689 115.036 679.742 115.46 682H109.642ZM125.386 714V667.455H153.295V672.455H131.023V688.182H151.205V693.182H131.023V714H125.386ZM58 791H43.6364V744.455H58.6364C63.1515 744.455 67.0152 745.386 70.2273 747.25C73.4394 749.098 75.9015 751.758 77.6136 755.227C79.3258 758.682 80.1818 762.818 80.1818 767.636C80.1818 772.485 79.3182 776.659 77.5909 780.159C75.8636 783.644 73.3485 786.326 70.0455 788.205C66.7424 790.068 62.7273 791 58 791ZM49.2727 786H57.6364C61.4848 786 64.6742 785.258 67.2045 783.773C69.7348 782.288 71.6212 780.174 72.8636 777.432C74.1061 774.689 74.7273 771.424 74.7273 767.636C74.7273 763.879 74.1136 760.644 72.8864 757.932C71.6591 755.205 69.8258 753.114 67.3864 751.659C64.947 750.189 61.9091 749.455 58.2727 749.455H49.2727V786ZM89.6364 791V744.455H105.364C109.015 744.455 112 745.114 114.318 746.432C116.652 747.735 118.379 749.5 119.5 751.727C120.621 753.955 121.182 756.439 121.182 759.182C121.182 761.924 120.621 764.417 119.5 766.659C118.394 768.902 116.682 770.689 114.364 772.023C112.045 773.341 109.076 774 105.455 774H94.1818V769H105.273C107.773 769 109.78 768.568 111.295 767.705C112.811 766.841 113.909 765.674 114.591 764.205C115.288 762.72 115.636 761.045 115.636 759.182C115.636 757.318 115.288 755.652 114.591 754.182C113.909 752.712 112.803 751.561 111.273 750.727C109.742 749.879 107.712 749.455 105.182 749.455H95.2727V791H89.6364ZM169.534 767.727C169.534 772.636 168.648 776.879 166.875 780.455C165.102 784.03 162.67 786.788 159.58 788.727C156.489 790.667 152.958 791.636 148.989 791.636C145.019 791.636 141.489 790.667 138.398 788.727C135.307 786.788 132.875 784.03 131.102 780.455C129.33 776.879 128.443 772.636 128.443 767.727C128.443 762.818 129.33 758.576 131.102 755C132.875 751.424 135.307 748.667 138.398 746.727C141.489 744.788 145.019 743.818 148.989 743.818C152.958 743.818 156.489 744.788 159.58 746.727C162.67 748.667 165.102 751.424 166.875 755C168.648 758.576 169.534 762.818 169.534 767.727ZM164.08 767.727C164.08 763.697 163.405 760.295 162.057 757.523C160.723 754.75 158.913 752.652 156.625 751.227C154.352 749.803 151.807 749.091 148.989 749.091C146.17 749.091 143.617 749.803 141.33 751.227C139.057 752.652 137.246 754.75 135.898 757.523C134.564 760.295 133.898 763.697 133.898 767.727C133.898 771.758 134.564 775.159 135.898 777.932C137.246 780.705 139.057 782.803 141.33 784.227C143.617 785.652 146.17 786.364 148.989 786.364C151.807 786.364 154.352 785.652 156.625 784.227C158.913 782.803 160.723 780.705 162.057 777.932C163.405 775.159 164.08 771.758 164.08 767.727Z" fill="black"/>
<path d="M4.90909 62V27.0909H10.2727V62H4.90909ZM7.63636 21.2727C6.59091 21.2727 5.68939 20.9167 4.93182 20.2045C4.18939 19.4924 3.81818 18.6364 3.81818 17.6364C3.81818 16.6364 4.18939 15.7803 4.93182 15.0682C5.68939 14.3561 6.59091 14 7.63636 14C8.68182 14 9.57576 14.3561 10.3182 15.0682C11.0758 15.7803 11.4545 16.6364 11.4545 17.6364C11.4545 18.6364 11.0758 19.4924 10.3182 20.2045C9.57576 20.9167 8.68182 21.2727 7.63636 21.2727ZM25.4602 41V62H20.0966V27.0909H25.2784V32.5455H25.733C26.5511 30.7727 27.7936 29.3485 29.4602 28.2727C31.1269 27.1818 33.2784 26.6364 35.9148 26.6364C38.2784 26.6364 40.3466 27.1212 42.1193 28.0909C43.892 29.0455 45.2708 30.5 46.2557 32.4545C47.2405 34.3939 47.733 36.8485 47.733 39.8182V62H42.3693V40.1818C42.3693 37.4394 41.6572 35.303 40.233 33.7727C38.8087 32.2273 36.8542 31.4545 34.3693 31.4545C32.6572 31.4545 31.1269 31.8258 29.7784 32.5682C28.4451 33.3106 27.392 34.3939 26.6193 35.8182C25.8466 37.2424 25.4602 38.9697 25.4602 41ZM57.5341 75.0909V27.0909H62.7159V32.6364H63.3523C63.7462 32.0303 64.2917 31.2576 64.9886 30.3182C65.7008 29.3636 66.7159 28.5152 68.0341 27.7727C69.3674 27.0152 71.1705 26.6364 73.4432 26.6364C76.3826 26.6364 78.9735 27.3712 81.2159 28.8409C83.4583 30.3106 85.2083 32.3939 86.4659 35.0909C87.7235 37.7879 88.3523 40.9697 88.3523 44.6364C88.3523 48.3333 87.7235 51.5379 86.4659 54.25C85.2083 56.947 83.4659 59.0379 81.2386 60.5227C79.0114 61.9924 76.4432 62.7273 73.5341 62.7273C71.2917 62.7273 69.4962 62.3561 68.1477 61.6136C66.7992 60.8561 65.7614 60 65.0341 59.0455C64.3068 58.0758 63.7462 57.2727 63.3523 56.6364H62.8977V75.0909H57.5341ZM62.8068 44.5455C62.8068 47.1818 63.1932 49.5076 63.9659 51.5227C64.7386 53.5227 65.8674 55.0909 67.3523 56.2273C68.8371 57.3485 70.6553 57.9091 72.8068 57.9091C75.0492 57.9091 76.9205 57.3182 78.4205 56.1364C79.9356 54.9394 81.072 53.3333 81.8295 51.3182C82.6023 49.2879 82.9886 47.0303 82.9886 44.5455C82.9886 42.0909 82.6098 39.8788 81.8523 37.9091C81.1098 35.9242 79.9811 34.3561 78.4659 33.2045C76.9659 32.0379 75.0795 31.4545 72.8068 31.4545C70.625 31.4545 68.7917 32.0076 67.3068 33.1136C65.822 34.2045 64.7008 35.7348 63.9432 37.7045C63.1856 39.6591 62.8068 41.9394 62.8068 44.5455ZM118.534 47.7273V27.0909H123.898V62H118.534V56.0909H118.17C117.352 57.8636 116.08 59.3712 114.352 60.6136C112.625 61.8409 110.443 62.4545 107.807 62.4545C105.625 62.4545 103.686 61.9773 101.989 61.0227C100.292 60.053 98.9583 58.5985 97.9886 56.6591C97.0189 54.7045 96.5341 52.2424 96.5341 49.2727V27.0909H101.898V48.9091C101.898 51.4545 102.61 53.4848 104.034 55C105.473 56.5152 107.307 57.2727 109.534 57.2727C110.867 57.2727 112.223 56.9318 113.602 56.25C114.996 55.5682 116.163 54.5227 117.102 53.1136C118.057 51.7045 118.534 49.9091 118.534 47.7273ZM148.903 27.0909V31.6364H130.812V27.0909H148.903ZM136.085 18.7273H141.449V52C141.449 53.5152 141.669 54.6515 142.108 55.4091C142.563 56.1515 143.138 56.6515 143.835 56.9091C144.547 57.1515 145.297 57.2727 146.085 57.2727C146.676 57.2727 147.161 57.2424 147.54 57.1818C147.919 57.1061 148.222 57.0455 148.449 57L149.54 61.8182C149.176 61.9545 148.669 62.0909 148.017 62.2273C147.366 62.3788 146.54 62.4545 145.54 62.4545C144.025 62.4545 142.54 62.1288 141.085 61.4773C139.646 60.8258 138.449 59.8333 137.494 58.5C136.555 57.1667 136.085 55.4848 136.085 53.4545V18.7273ZM190.517 27.0909V31.6364H171.699V27.0909H190.517ZM177.335 62V22.2727C177.335 20.2727 177.805 18.6061 178.744 17.2727C179.684 15.9394 180.903 14.9394 182.403 14.2727C183.903 13.6061 185.487 13.2727 187.153 13.2727C188.472 13.2727 189.547 13.3788 190.381 13.5909C191.214 13.803 191.835 14 192.244 14.1818L190.699 18.8182C190.426 18.7273 190.047 18.6136 189.562 18.4773C189.093 18.3409 188.472 18.2727 187.699 18.2727C185.926 18.2727 184.646 18.7197 183.858 19.6136C183.085 20.5076 182.699 21.8182 182.699 23.5455V62H177.335ZM198.034 62V27.0909H203.398V62H198.034ZM200.761 21.2727C199.716 21.2727 198.814 20.9167 198.057 20.2045C197.314 19.4924 196.943 18.6364 196.943 17.6364C196.943 16.6364 197.314 15.7803 198.057 15.0682C198.814 14.3561 199.716 14 200.761 14C201.807 14 202.701 14.3561 203.443 15.0682C204.201 15.7803 204.58 16.6364 204.58 17.6364C204.58 18.6364 204.201 19.4924 203.443 20.2045C202.701 20.9167 201.807 21.2727 200.761 21.2727ZM218.585 15.4545V62H213.222V15.4545H218.585ZM243.045 62.7273C239.682 62.7273 236.78 61.9848 234.341 60.5C231.917 59 230.045 56.9091 228.727 54.2273C227.424 51.5303 226.773 48.3939 226.773 44.8182C226.773 41.2424 227.424 38.0909 228.727 35.3636C230.045 32.6212 231.879 30.4848 234.227 28.9545C236.591 27.4091 239.348 26.6364 242.5 26.6364C244.318 26.6364 246.114 26.9394 247.886 27.5455C249.659 28.1515 251.273 29.1364 252.727 30.5C254.182 31.8485 255.341 33.6364 256.205 35.8636C257.068 38.0909 257.5 40.8333 257.5 44.0909V46.3636H230.591V41.7273H252.045C252.045 39.7576 251.652 38 250.864 36.4545C250.091 34.9091 248.985 33.6894 247.545 32.7955C246.121 31.9015 244.439 31.4545 242.5 31.4545C240.364 31.4545 238.515 31.9848 236.955 33.0455C235.409 34.0909 234.22 35.4545 233.386 37.1364C232.553 38.8182 232.136 40.6212 232.136 42.5455V45.6364C232.136 48.2727 232.591 50.5076 233.5 52.3409C234.424 54.1591 235.705 55.5455 237.341 56.5C238.977 57.4394 240.879 57.9091 243.045 57.9091C244.455 57.9091 245.727 57.7121 246.864 57.3182C248.015 56.9091 249.008 56.303 249.841 55.5C250.674 54.6818 251.318 53.6667 251.773 52.4545L256.955 53.9091C256.409 55.6667 255.492 57.2121 254.205 58.5455C252.917 59.8636 251.326 60.8939 249.432 61.6364C247.538 62.3636 245.409 62.7273 243.045 62.7273Z" fill="black"/>
<line x1="166.139" y1="465.52" x2="311.139" y2="507.52" stroke="#1752A9"/>
<line x1="184.76" y1="534.561" x2="310.76" y2="465.561" stroke="#1752A9"/>
<line x1="172.014" y1="610.5" x2="311.014" y2="614.5" stroke="#1752A9"/>
<line x1="190.918" y1="679.507" x2="316.918" y2="658.507" stroke="#1752A9"/>
<line x1="181.881" y1="776.514" x2="307.881" y2="745.514" stroke="#1752A9"/>
<line x1="180.753" y1="386.565" x2="307.753" y2="314.565" stroke="#1752A9"/>
<path d="M172 234L319 142" stroke="#1752A9"/>
<line x1="185.141" y1="150.52" x2="311.141" y2="187.52" stroke="#1752A9"/>
<line x1="180.169" y1="312.529" x2="311.169" y2="359.529" stroke="#1752A9"/>
<line x1="752.883" y1="181.514" x2="898.883" y2="146.514" stroke="#B065EB"/>
<line x1="763.909" y1="250.508" x2="898.909" y2="225.508" stroke="#B065EB"/>
<line x1="760.244" y1="290.564" x2="903.244" y2="370.564" stroke="#B065EB"/>
<line x1="769.293" y1="338.595" x2="899.293" y2="432.595" stroke="#B065EB"/>
<line x1="760.375" y1="378.669" x2="894.375" y2="530.669" stroke="#B065EB"/>
<line x1="760.41" y1="419.713" x2="888.41" y2="602.713" stroke="#B065EB"/>
<line x1="761.422" y1="467.732" x2="894.422" y2="677.732" stroke="#B065EB"/>
<line x1="762.458" y1="489.8" x2="888.458" y2="777.8" stroke="#B065EB"/>
<line x1="762.523" y1="724.851" x2="893.523" y2="303.851" stroke="#B065EB"/>
<line x1="399.081" y1="146.507" x2="497.081" y2="162.507" stroke="#FF0000"/>
<line x1="582.528" y1="479.836" x2="676.528" y2="208.836" stroke="#00970F"/>
<line x1="582.526" y1="540.839" x2="680.526" y2="251.839" stroke="#00970F"/>
<line x1="583.391" y1="168.688" x2="681.391" y2="291.688" stroke="#00970F"/>
<line x1="581.458" y1="300.8" x2="677.458" y2="520.8" stroke="#00970F"/>
<line x1="586.435" y1="259.753" x2="677.435" y2="419.753" stroke="#00970F"/>
<line x1="587.396" y1="216.695" x2="681.396" y2="338.695" stroke="#00970F"/>
<line x1="573.552" y1="587.777" x2="676.552" y2="380.777" stroke="#00970F"/>
<line x1="580.581" y1="620.726" x2="680.581" y2="467.726" stroke="#00970F"/>
<line x1="404.746" y1="368.57" x2="492.746" y2="316.57" stroke="#FF0000"/>
<line x1="397.27" y1="472.579" x2="497.27" y2="536.579" stroke="#FF0000"/>
<line x1="397.377" y1="513.671" x2="493.377" y2="623.671" stroke="#FF0000"/>
<line x1="398.727" y1="652.581" x2="496.727" y2="588.581" stroke="#FF0000"/>
<line x1="401.617" y1="608.678" x2="496.617" y2="495.678" stroke="#FF0000"/>
<line x1="398.776" y1="316.553" x2="492.776" y2="269.553" stroke="#FF0000"/>
<line x1="399.081" y1="192.507" x2="497.081" y2="208.507" stroke="#FF0000"/>
</svg>
